
<svg width="1440" height="1024" viewBox="0 0 1440 1024" fill="none" xmlns="http://www.w3.org/2000/svg">
<rect width="1440" height="1024" fill="#201785"/>
<mask id="mask0" mask-type="alpha" maskUnits="userSpaceOnUse" x="0" y="0" width="1440" height="1024">
<rect width="1440" height="1024" fill="#1E283D"/>
</mask>
<g mask="url(#mask0)">
<g opacity="0.8">
<g style="mix-blend-mode:multiply" opacity="0.8" filter="url(#filter0_f)">
<path d="M739.532 97.0498C948.944 51.3113 1415.88 -37.0304 1445.72 204.19C1475.56 445.41 1113.54 788.53 904.124 834.269C694.712 880.007 542.223 731.435 512.382 490.215C482.541 248.995 530.12 142.788 739.532 97.0498Z" fill="url(#paint0_linear)" fill-opacity="0.4"/>
</g>
</g>
<g opacity="0.8">
<g style="mix-blend-mode:multiply" opacity="0.8" filter="url(#filter1_f)">
<path d="M911.291 171.002C1024.91 140.453 1278.23 81.4479 1294.42 242.562C1310.61 403.676 1114.2 632.852 1000.59 663.401C886.974 693.951 804.243 594.717 788.053 433.603C771.863 272.488 797.677 201.551 911.291 171.002Z" fill="url(#paint1_linear)" fill-opacity="0.4"/>
</g>
</g>
<g opacity="0.8">
<g style="mix-blend-mode:multiply" opacity="0.8" filter="url(#filter2_f)">
<path d="M1017.36 181.688C1125.55 135.95 1366.77 47.6082 1382.18 288.828C1397.6 530.048 1210.58 873.169 1102.39 918.907C994.209 964.646 915.432 816.073 900.016 574.853C884.6 333.633 909.18 227.427 1017.36 181.688Z" fill="url(#paint2_linear)" fill-opacity="0.4"/>
</g>
</g>
<g opacity="0.8">
<g style="mix-blend-mode:multiply" opacity="0.8" filter="url(#filter3_f)">
<path d="M1043.84 85.2108C1118.88 64.2551 1286.2 23.7802 1296.89 134.298C1307.59 244.816 1177.86 402.021 1102.82 422.977C1027.78 443.933 973.132 375.862 962.439 265.344C951.745 154.826 968.795 106.166 1043.84 85.2108Z" fill="url(#paint3_linear)" fill-opacity="0.4"/>
</g>
</g>
<g opacity="0.8">
<g style="mix-blend-mode:multiply" opacity="0.8" filter="url(#filter4_f)">
<path d="M563.942 385.74C871.153 363.933 1556.15 321.812 1599.93 436.824C1643.7 551.835 1112.61 715.431 805.401 737.239C498.19 759.047 274.486 688.209 230.709 573.197C186.932 458.186 256.731 407.548 563.942 385.74Z" fill="url(#paint4_linear)" fill-opacity="0.4"/>
</g>
</g>
<g opacity="0.8">
<g style="mix-blend-mode:multiply" opacity="0.8" filter="url(#filter5_f)">
<path d="M815.917 421C982.591 406.435 1354.23 378.302 1377.98 455.119C1401.73 531.937 1113.59 641.205 946.918 655.771C780.244 670.337 658.876 623.023 635.125 546.205C611.374 469.388 649.243 435.566 815.917 421Z" fill="url(#paint5_linear)" fill-opacity="0.4"/>
</g>
</g>
<g opacity="0.8">
<g style="mix-blend-mode:multiply" opacity="0.8" filter="url(#filter6_f)">
<path d="M971.525 426.095C1130.23 404.288 1484.11 362.167 1506.72 477.179C1529.34 592.19 1254.97 755.786 1096.26 777.594C937.557 799.402 821.99 728.564 799.375 613.552C776.759 498.541 812.818 447.903 971.525 426.095Z" fill="url(#paint6_linear)" fill-opacity="0.4"/>
</g>
</g>
<g opacity="0.8">
<g style="mix-blend-mode:multiply" opacity="0.8" filter="url(#filter7_f)">
<path d="M1010.36 380.096C1120.45 370.104 1365.91 350.806 1381.6 403.5C1397.29 456.194 1206.97 531.148 1096.89 541.139C986.8 551.131 906.637 518.676 890.95 465.982C875.263 413.288 900.275 390.087 1010.36 380.096Z" fill="url(#paint7_linear)" fill-opacity="0.4"/>
</g>
</g>
<g opacity="0.8">
<g style="mix-blend-mode:multiply" opacity="0.8" filter="url(#filter8_f)">
<path d="M259.941 592.74C567.152 570.933 1252.15 528.812 1295.93 643.824C1339.7 758.835 808.611 922.431 501.4 944.239C194.189 966.047 -29.5152 895.209 -73.2922 780.197C-117.069 665.186 -47.2699 614.548 259.941 592.74Z" fill="url(#paint8_linear)" fill-opacity="0.4"/>
</g>
</g>
<g opacity="0.8">
<g style="mix-blend-mode:multiply" opacity="0.8" filter="url(#filter9_f)">
<path d="M511.917 628C678.591 613.435 1050.23 585.302 1073.98 662.119C1097.73 738.937 809.592 848.205 642.918 862.771C476.244 877.337 354.876 830.023 331.125 753.205C307.374 676.388 345.243 642.566 511.917 628Z" fill="url(#paint9_linear)" fill-opacity="0.4"/>
</g>
</g>
<g opacity="0.8">
<g style="mix-blend-mode:multiply" opacity="0.8" filter="url(#filter10_f)">
<path d="M667.525 633.095C826.232 611.288 1180.11 569.167 1202.72 684.179C1225.34 799.19 950.972 962.786 792.265 984.594C633.557 1006.4 517.99 935.564 495.375 820.552C472.759 705.541 508.818 654.903 667.525 633.095Z" fill="url(#paint10_linear)" fill-opacity="0.4"/>
</g>
</g>
<g opacity="0.8">
<g style="mix-blend-mode:multiply" opacity="0.8" filter="url(#filter11_f)">
<path d="M706.362 587.096C816.449 577.104 1061.91 557.806 1077.6 610.5C1093.29 663.194 902.974 738.148 792.887 748.139C682.8 758.131 602.637 725.676 586.95 672.982C571.263 620.288 596.275 597.087 706.362 587.096Z" fill="url(#paint11_linear)" fill-opacity="0.4"/>
</g>
</g>
<rect opacity="0.5" y="577" width="1440" height="217" fill="url(#paint12_radial)"/>
<path opacity="0.5" d="M640 723H577.5L615 756L554 784L674 771.5L654 792L735 771.5L757 801.5L776 771.5L819.5 792L800 756.5L874.5 765L812.5 733L872.5 730L807 718.5L853.5 692L812.5 695L790 673L743 692L689 676.5L697.5 695L615 692L640 723Z" fill="#201785"/>
<mask id="mask1" mask-type="alpha" maskUnits="userSpaceOnUse" x="554" y="673" width="321" height="129">
<path d="M640 723H577.5L615 756L554 784L674 771.5L654 792L735 771.5L757 801.5L776 771.5L819.5 792L800 756.5L874.5 765L812.5 733L872.5 730L807 718.5L853.5 692L812.5 695L790 673L743 692L689 676.5L697.5 695L615 692L640 723Z" fill="#201785"/>
</mask>
<g mask="url(#mask1)">
<path d="M697 808V693.685L616 690.5V813.5L697 808Z" fill="url(#paint13_linear)"/>
<path opacity="0.7" d="M745 774V688.685L687.5 675.5L682.5 762L745 774Z" fill="url(#paint14_linear)"/>
<path d="M639.5 792.5V722H557V763L639.5 792.5Z" fill="url(#paint15_linear)"/>
<path d="M879 777.579V706L807 718.782V791L879 777.579Z" fill="url(#paint16_linear)"/>
<path d="M614 826.579V755L551 767.782V840L614 826.579Z" fill="url(#paint17_linear)"/>
<path d="M812 725.579V654L790 666.782V739L812 725.579Z" fill="url(#paint18_linear)"/>
<path d="M885 791.579V740L813 732.782V805L885 791.579Z" fill="url(#paint19_linear)"/>
<path d="M872 815.579L874.5 765L800 756.782V829L872 815.579Z" fill="url(#paint20_linear)"/>
</g>
</g>
<path d="M120.294 81.328L127.29 80.184L128.236 71.208L123.11 69.184L116.048 69.91L115.894 68.062L123.44 67.314L130.436 69.932L129.138 81.79L120.624 83.198L120.294 81.328ZM117.192 70.746H119.194L119.634 83.484H117.632L117.192 70.746ZM133.055 75.102L134.925 74.816L135.937 81.746L139.897 81.636L140.293 73.606L132.835 73.738L132.857 72L142.273 71.846L141.679 83.308L134.331 83.55L133.055 75.102ZM145.202 67.226H147.776V69.778H145.202V67.226ZM141.99 87.554L145.51 84.738V71.78H147.446V85.442L143.09 88.962L141.99 87.554ZM150.522 75.102L152.392 74.816L153.404 81.746L157.364 81.636L157.76 73.606L150.302 73.738L150.324 72L159.74 71.846L159.146 83.308L151.798 83.55L150.522 75.102Z" fill="white"/>
<path d="M120.294 81.328L120.214 80.8346C120.082 80.8561 119.964 80.9297 119.886 81.0387C119.809 81.1477 119.779 81.2832 119.802 81.4149L120.294 81.328ZM127.29 80.184L127.371 80.6774C127.593 80.6411 127.764 80.4605 127.787 80.2364L127.29 80.184ZM128.236 71.208L128.733 71.2604C128.757 71.0371 128.629 70.8254 128.42 70.7429L128.236 71.208ZM123.11 69.184L123.294 68.7189C123.219 68.6895 123.139 68.6784 123.059 68.6866L123.11 69.184ZM116.048 69.91L115.55 69.9515C115.561 70.0853 115.626 70.209 115.729 70.2948C115.832 70.3805 115.966 70.4211 116.099 70.4074L116.048 69.91ZM115.894 68.062L115.845 67.5644C115.573 67.5914 115.373 67.8314 115.396 68.1035L115.894 68.062ZM123.44 67.314L123.615 66.8457C123.544 66.8189 123.467 66.8089 123.391 66.8164L123.44 67.314ZM130.436 69.932L130.933 69.9864C130.958 69.7591 130.826 69.5439 130.611 69.4637L130.436 69.932ZM129.138 81.79L129.22 82.2833C129.441 82.2467 129.611 82.0673 129.635 81.8444L129.138 81.79ZM120.624 83.198L120.132 83.2849C120.179 83.5548 120.435 83.736 120.706 83.6913L120.624 83.198ZM117.192 70.746V70.246C117.057 70.246 116.927 70.3011 116.833 70.3986C116.738 70.4961 116.688 70.6277 116.693 70.7633L117.192 70.746ZM119.194 70.746L119.694 70.7287C119.685 70.4595 119.464 70.246 119.194 70.246V70.746ZM119.634 83.484V83.984C119.77 83.984 119.9 83.9289 119.994 83.8314C120.088 83.7339 120.139 83.6023 120.134 83.4667L119.634 83.484ZM117.632 83.484L117.133 83.5013C117.142 83.7705 117.363 83.984 117.632 83.984V83.484ZM120.375 81.8214L127.371 80.6774L127.21 79.6906L120.214 80.8346L120.375 81.8214ZM127.787 80.2364L128.733 71.2604L127.739 71.1556L126.793 80.1316L127.787 80.2364ZM128.42 70.7429L123.294 68.7189L122.927 69.6491L128.053 71.6731L128.42 70.7429ZM123.059 68.6866L115.997 69.4126L116.099 70.4074L123.161 69.6814L123.059 68.6866ZM116.546 69.8685L116.392 68.0205L115.396 68.1035L115.55 69.9515L116.546 69.8685ZM115.944 68.5596L123.49 67.8116L123.391 66.8164L115.845 67.5644L115.944 68.5596ZM123.265 67.7823L130.261 70.4003L130.611 69.4637L123.615 66.8457L123.265 67.7823ZM129.939 69.8776L128.641 81.7356L129.635 81.8444L130.933 69.9864L129.939 69.8776ZM129.057 81.2967L120.543 82.7047L120.706 83.6913L129.22 82.2833L129.057 81.2967ZM121.117 83.1111L120.787 81.2411L119.802 81.4149L120.132 83.2849L121.117 83.1111ZM117.192 71.246H119.194V70.246H117.192V71.246ZM118.695 70.7633L119.135 83.5013L120.134 83.4667L119.694 70.7287L118.695 70.7633ZM119.634 82.984H117.632V83.984H119.634V82.984ZM118.132 83.4667L117.692 70.7287L116.693 70.7633L117.133 83.5013L118.132 83.4667ZM133.055 75.102L132.98 74.6077C132.707 74.6494 132.52 74.904 132.561 75.1767L133.055 75.102ZM134.925 74.816L135.42 74.7437C135.401 74.612 135.33 74.4933 135.223 74.4141C135.116 74.3348 134.981 74.3016 134.85 74.3217L134.925 74.816ZM135.937 81.746L135.442 81.8182C135.479 82.0691 135.698 82.2528 135.951 82.2458L135.937 81.746ZM139.897 81.636L139.911 82.1358C140.172 82.1286 140.384 81.9215 140.397 81.6606L139.897 81.636ZM140.293 73.606L140.793 73.6306C140.799 73.4924 140.749 73.3575 140.652 73.2581C140.556 73.1587 140.423 73.1036 140.284 73.1061L140.293 73.606ZM132.835 73.738L132.335 73.7317C132.334 73.8669 132.387 73.9971 132.483 74.0924C132.578 74.1878 132.709 74.2403 132.844 74.2379L132.835 73.738ZM132.857 72L132.849 71.5001C132.579 71.5045 132.361 71.7232 132.357 71.9937L132.857 72ZM142.273 71.846L142.773 71.8719C142.78 71.7335 142.729 71.5984 142.633 71.4988C142.537 71.3991 142.404 71.3438 142.265 71.3461L142.273 71.846ZM141.679 83.308L141.696 83.8077C141.955 83.7992 142.165 83.5933 142.179 83.3339L141.679 83.308ZM134.331 83.55L133.837 83.6247C133.875 83.8754 134.094 84.0581 134.348 84.0497L134.331 83.55ZM133.131 75.5963L135.001 75.3103L134.85 74.3217L132.98 74.6077L133.131 75.5963ZM134.43 74.8882L135.442 81.8182L136.432 81.6737L135.42 74.7437L134.43 74.8882ZM135.951 82.2458L139.911 82.1358L139.883 81.1362L135.923 81.2462L135.951 82.2458ZM140.397 81.6606L140.793 73.6306L139.794 73.5814L139.398 81.6114L140.397 81.6606ZM140.284 73.1061L132.826 73.2381L132.844 74.2379L140.302 74.1059L140.284 73.1061ZM133.335 73.7443L133.357 72.0063L132.357 71.9937L132.335 73.7317L133.335 73.7443ZM132.865 72.4999L142.281 72.3459L142.265 71.3461L132.849 71.5001L132.865 72.4999ZM141.774 71.8201L141.18 83.2821L142.179 83.3339L142.773 71.8719L141.774 71.8201ZM141.663 82.8083L134.315 83.0503L134.348 84.0497L141.696 83.8077L141.663 82.8083ZM134.826 83.4753L133.55 75.0273L132.561 75.1767L133.837 83.6247L134.826 83.4753ZM145.202 67.226V66.726C144.926 66.726 144.702 66.9499 144.702 67.226H145.202ZM147.776 67.226H148.276C148.276 66.9499 148.052 66.726 147.776 66.726V67.226ZM147.776 69.778V70.278C148.052 70.278 148.276 70.0541 148.276 69.778H147.776ZM145.202 69.778H144.702C144.702 70.0541 144.926 70.278 145.202 70.278V69.778ZM141.99 87.554L141.677 87.1636C141.463 87.3347 141.427 87.646 141.596 87.8618L141.99 87.554ZM145.51 84.738L145.822 85.1284C145.941 85.0335 146.01 84.8899 146.01 84.738H145.51ZM145.51 71.78V71.28C145.234 71.28 145.01 71.5039 145.01 71.78H145.51ZM147.446 71.78H147.946C147.946 71.5039 147.722 71.28 147.446 71.28V71.78ZM147.446 85.442L147.76 85.8309C147.877 85.736 147.946 85.593 147.946 85.442H147.446ZM143.09 88.962L142.696 89.2698C142.778 89.3754 142.9 89.4435 143.033 89.4588C143.166 89.474 143.3 89.4351 143.404 89.3509L143.09 88.962ZM145.202 67.726H147.776V66.726H145.202V67.726ZM147.276 67.226V69.778H148.276V67.226H147.276ZM147.776 69.278H145.202V70.278H147.776V69.278ZM145.702 69.778V67.226H144.702V69.778H145.702ZM142.302 87.9444L145.822 85.1284L145.197 84.3476L141.677 87.1636L142.302 87.9444ZM146.01 84.738V71.78H145.01V84.738H146.01ZM145.51 72.28H147.446V71.28H145.51V72.28ZM146.946 71.78V85.442H147.946V71.78H146.946ZM147.131 85.0531L142.775 88.5731L143.404 89.3509L147.76 85.8309L147.131 85.0531ZM143.484 88.6542L142.384 87.2462L141.596 87.8618L142.696 89.2698L143.484 88.6542ZM150.522 75.102L150.446 74.6077C150.174 74.6494 149.986 74.904 150.028 75.1767L150.522 75.102ZM152.392 74.816L152.887 74.7437C152.868 74.612 152.797 74.4933 152.689 74.4141C152.582 74.3348 152.448 74.3016 152.316 74.3217L152.392 74.816ZM153.404 81.746L152.909 81.8182C152.946 82.0691 153.165 82.2528 153.418 82.2458L153.404 81.746ZM157.364 81.636L157.378 82.1358C157.639 82.1286 157.851 81.9215 157.863 81.6606L157.364 81.636ZM157.76 73.606L158.259 73.6306C158.266 73.4924 158.215 73.3575 158.119 73.2581C158.023 73.1587 157.89 73.1036 157.751 73.1061L157.76 73.606ZM150.302 73.738L149.802 73.7317C149.8 73.8669 149.854 73.9971 149.949 74.0924C150.045 74.1878 150.176 74.2403 150.311 74.2379L150.302 73.738ZM150.324 72L150.316 71.5001C150.045 71.5045 149.828 71.7232 149.824 71.9937L150.324 72ZM159.74 71.846L160.239 71.8719C160.247 71.7335 160.196 71.5984 160.1 71.4988C160.004 71.3991 159.87 71.3438 159.732 71.3461L159.74 71.846ZM159.146 83.308L159.162 83.8077C159.422 83.7992 159.632 83.5933 159.645 83.3339L159.146 83.308ZM151.798 83.55L151.304 83.6247C151.342 83.8754 151.561 84.0581 151.814 84.0497L151.798 83.55ZM150.598 75.5963L152.468 75.3103L152.316 74.3217L150.446 74.6077L150.598 75.5963ZM151.897 74.8882L152.909 81.8182L153.899 81.6737L152.887 74.7437L151.897 74.8882ZM153.418 82.2458L157.378 82.1358L157.35 81.1362L153.39 81.2462L153.418 82.2458ZM157.863 81.6606L158.259 73.6306L157.261 73.5814L156.865 81.6114L157.863 81.6606ZM157.751 73.1061L150.293 73.2381L150.311 74.2379L157.769 74.1059L157.751 73.1061ZM150.802 73.7443L150.824 72.0063L149.824 71.9937L149.802 73.7317L150.802 73.7443ZM150.332 72.4999L159.748 72.3459L159.732 71.3461L150.316 71.5001L150.332 72.4999ZM159.241 71.8201L158.647 83.2821L159.645 83.3339L160.239 71.8719L159.241 71.8201ZM159.13 82.8083L151.782 83.0503L151.814 84.0497L159.162 83.8077L159.13 82.8083ZM152.292 83.4753L151.016 75.0273L150.028 75.1767L151.304 83.6247L152.292 83.4753Z" fill="white"/>
<path d="M69.991 64.7296C71.191 65.5296 71.1576 67.063 70.991 67.7296C70.3243 67.7296 68.491 67.4296 66.491 66.2296C63.991 64.7296 63.991 62.2296 64.991 63.2296C65.991 64.2296 68.491 63.7296 69.991 64.7296Z" fill="#00BA7F"/>
<path fill-rule="evenodd" clip-rule="evenodd" d="M82.866 88C90.3218 88 96.366 81.9558 96.366 74.5C96.366 67.0442 90.3218 61 82.866 61C77.8855 61 73.535 63.697 71.1951 67.7102C70.8945 67.0199 70.2672 66.1804 69.1839 66.029C68.3091 65.9066 67.3742 66.213 66.4912 66.5024C65.5722 66.8036 64.7093 67.0864 64.0285 66.8484C62.6935 66.3816 63.7788 68.6338 66.6822 68.8997C68.442 69.0609 69.8914 68.7982 70.7517 68.5355C69.8644 70.3341 69.366 72.3588 69.366 74.5C69.366 81.9558 75.4101 88 82.866 88Z" fill="#00D894"/>
<path d="M70 75.7751C70 72.24 73.3326 69.6531 76.7572 70.5298L79.8817 71.3297C81.5995 71.7695 83.4005 71.7695 85.1183 71.3297L88.2428 70.5298C91.6674 69.6531 95 72.24 95 75.7751C95 79.2936 92.4636 82.2996 88.9953 82.8915L84.6029 83.6411C83.211 83.8787 81.789 83.8787 80.3971 83.6411L76.0047 82.8915C72.5364 82.2996 70 79.2936 70 75.7751Z" fill="white"/>
<rect width="2" height="11.9986" rx="1" transform="matrix(-0.00237127 -0.999997 -0.999997 0.00237127 107.732 83)" fill="white"/>
<rect width="1.38663" height="5.05457" rx="0.693315" transform="matrix(0.862928 -0.505328 0.698438 0.715671 75.3857 76.3826)" fill="#1E283D"/>
<rect width="1.37876" height="5.16064" rx="0.689382" transform="matrix(-0.85121 -0.524826 0.716642 -0.697442 76.5645 77.3228)" fill="#1E283D"/>
<rect width="1.38663" height="5.05457" rx="0.693315" transform="matrix(-0.862928 0.505328 -0.698437 -0.715671 89.2432 76.6174)" fill="#1E283D"/>
<rect width="1.37876" height="5.16064" rx="0.689382" transform="matrix(0.85121 0.524826 -0.716642 0.697441 88.0645 75.6772)" fill="#1E283D"/>
<rect width="2" height="12" rx="1" transform="matrix(-0.866025 0.5 0.5 0.866025 61.7324 70)" fill="white"/>
<path d="M75.3837 71.9892C75.2541 71.5947 74.8261 71.3755 74.4529 71.5577C73.6418 71.9538 72.9369 72.5454 72.4045 73.2839C71.7249 74.2267 71.3614 75.3606 71.3663 76.5228C71.3711 77.685 71.7439 78.8158 72.4313 79.7529C72.9697 80.487 73.6795 81.0727 74.4939 81.4621C74.8685 81.6412 75.2947 81.4184 75.4211 81.0229C75.5475 80.6274 75.3243 80.2102 74.9594 80.0121C74.4442 79.7324 73.9941 79.3412 73.6438 78.8636C73.1443 78.1826 72.8734 77.361 72.8699 76.5165C72.8664 75.6721 73.1305 74.8482 73.6243 74.1632C73.9707 73.6827 74.4176 73.2878 74.9304 73.0038C75.2937 72.8027 75.5134 72.3837 75.3837 71.9892Z" fill="#1E283D"/>
<path d="M89.1026 81.1141C89.2059 81.4999 89.6051 81.7332 89.9739 81.5801C90.8168 81.2304 91.5631 80.6749 92.1418 79.9596C92.8729 79.0562 93.2989 77.9443 93.3589 76.7837C93.4188 75.623 93.1096 74.4732 92.4755 73.4992C91.9735 72.7282 91.2884 72.0987 90.4861 71.664C90.1349 71.4738 89.7138 71.6647 89.5713 72.0378C89.4287 72.4109 89.6203 72.8237 89.9621 73.0302C90.4825 73.3445 90.9283 73.7736 91.2634 74.2883C91.7308 75.0062 91.9587 75.8536 91.9145 76.7091C91.8703 77.5645 91.5563 78.384 91.0175 79.0499C90.6312 79.5273 90.1436 79.9082 89.5936 80.1673C89.2322 80.3374 88.9992 80.7283 89.1026 81.1141Z" fill="#1E283D"/>
<g opacity="0.2">
<path d="M640.551 288.176V266.596H599V248.359L632.241 191.824H665.175V246.839H675.639V266.596H665.175V288.176H640.551ZM623.931 246.839H640.551V235.897C640.551 234.276 640.551 232.503 640.551 230.578C640.654 228.551 640.757 226.525 640.859 224.498C640.962 222.472 641.064 220.496 641.167 218.571C641.27 216.545 641.372 214.721 641.475 213.1H640.859C639.628 216.038 638.346 218.926 637.012 221.763C635.678 224.6 634.293 227.487 632.857 230.426L623.931 246.839Z" fill="#E5FEF6"/>
<path d="M720.582 290C715.145 290 710.22 288.936 705.809 286.809C701.397 284.58 697.55 281.337 694.267 277.082C691.086 272.827 688.624 267.558 686.88 261.277C685.135 254.995 684.263 247.751 684.263 239.544C684.263 231.337 685.135 224.144 686.88 217.964C688.624 211.682 691.086 206.515 694.267 202.462C697.55 198.308 701.397 195.218 705.809 193.191C710.22 191.064 715.145 190 720.582 190C725.917 190 730.791 191.064 735.202 193.191C739.717 195.218 743.564 198.308 746.745 202.462C750.028 206.616 752.541 211.783 754.285 217.964C756.029 224.144 756.902 231.337 756.902 239.544C756.902 247.751 756.029 254.995 754.285 261.277C752.541 267.558 750.028 272.827 746.745 277.082C743.564 281.337 739.717 284.58 735.202 286.809C730.791 288.936 725.917 290 720.582 290ZM720.582 269.939C722.121 269.939 723.558 269.585 724.892 268.875C726.328 268.065 727.559 266.545 728.585 264.316C729.611 262.087 730.432 258.997 731.047 255.046C731.663 251.094 731.971 245.927 731.971 239.544C731.971 233.161 731.663 228.045 731.047 224.195C730.432 220.344 729.611 217.356 728.585 215.228C727.559 213.1 726.328 211.733 724.892 211.125C723.558 210.415 722.121 210.061 720.582 210.061C719.044 210.061 717.556 210.415 716.12 211.125C714.786 211.733 713.606 213.1 712.58 215.228C711.554 217.356 710.733 220.344 710.118 224.195C709.502 228.045 709.194 233.161 709.194 239.544C709.194 245.927 709.502 251.094 710.118 255.046C710.733 258.997 711.554 262.087 712.58 264.316C713.606 266.545 714.786 268.065 716.12 268.875C717.556 269.585 719.044 269.939 720.582 269.939Z" fill="#E5FEF6"/>
<path d="M806.769 288.176V266.596H765.218V248.359L798.459 191.824H831.392V246.839H841.857V266.596H831.392V288.176H806.769ZM790.149 246.839H806.769V235.897C806.769 234.276 806.769 232.503 806.769 230.578C806.872 228.551 806.974 226.525 807.077 224.498C807.18 222.472 807.282 220.496 807.385 218.571C807.487 216.545 807.59 214.721 807.693 213.1H807.077C805.846 216.038 804.563 218.926 803.23 221.763C801.896 224.6 800.511 227.487 799.075 230.426L790.149 246.839Z" fill="#E5FEF6"/>
</g>
<path d="M663.862 397.672C661.547 397.672 659.419 397.224 657.478 396.328C655.574 395.432 653.931 394.163 652.55 392.52C651.168 390.84 650.086 388.824 649.302 386.472C648.555 384.083 648.182 381.413 648.182 378.464C648.182 375.515 648.555 372.883 649.302 370.568C650.086 368.216 651.168 366.237 652.55 364.632C653.931 362.989 655.574 361.739 657.478 360.88C659.419 360.021 661.547 359.592 663.862 359.592C666.176 359.592 668.286 360.04 670.19 360.936C672.131 361.795 673.792 363.045 675.174 364.688C676.592 366.293 677.675 368.272 678.422 370.624C679.206 372.939 679.598 375.552 679.598 378.464C679.598 381.413 679.206 384.083 678.422 386.472C677.675 388.824 676.592 390.84 675.174 392.52C673.792 394.163 672.131 395.432 670.19 396.328C668.286 397.224 666.176 397.672 663.862 397.672ZM663.862 393.584C665.504 393.584 666.979 393.229 668.286 392.52C669.63 391.811 670.768 390.803 671.702 389.496C672.672 388.152 673.419 386.565 673.942 384.736C674.464 382.869 674.726 380.779 674.726 378.464C674.726 376.187 674.464 374.133 673.942 372.304C673.419 370.475 672.672 368.925 671.702 367.656C670.768 366.387 669.63 365.416 668.286 364.744C666.979 364.035 665.504 363.68 663.862 363.68C662.219 363.68 660.726 364.035 659.382 364.744C658.075 365.416 656.936 366.387 655.966 367.656C655.032 368.925 654.304 370.475 653.782 372.304C653.259 374.133 652.998 376.187 652.998 378.464C652.998 380.779 653.259 382.869 653.782 384.736C654.304 386.565 655.032 388.152 655.966 389.496C656.936 390.803 658.075 391.811 659.382 392.52C660.726 393.229 662.219 393.584 663.862 393.584ZM697.633 397.672C695.953 397.672 694.348 397.355 692.817 396.72C691.324 396.085 689.998 395.171 688.841 393.976C687.684 392.744 686.75 391.251 686.041 389.496C685.369 387.704 685.033 385.688 685.033 383.448C685.033 381.171 685.369 379.155 686.041 377.4C686.75 375.608 687.684 374.096 688.841 372.864C689.998 371.632 691.324 370.699 692.817 370.064C694.348 369.429 695.953 369.112 697.633 369.112C699.313 369.112 700.9 369.429 702.393 370.064C703.924 370.699 705.268 371.632 706.425 372.864C707.582 374.096 708.497 375.608 709.169 377.4C709.878 379.155 710.233 381.171 710.233 383.448C710.233 385.688 709.878 387.704 709.169 389.496C708.497 391.251 707.582 392.744 706.425 393.976C705.268 395.171 703.924 396.085 702.393 396.72C700.9 397.355 699.313 397.672 697.633 397.672ZM697.633 393.864C698.79 393.864 699.854 393.621 700.825 393.136C701.796 392.613 702.617 391.904 703.289 391.008C703.998 390.075 704.54 388.973 704.913 387.704C705.286 386.435 705.473 385.016 705.473 383.448C705.473 381.88 705.286 380.461 704.913 379.192C704.54 377.885 703.998 376.765 703.289 375.832C702.617 374.899 701.796 374.189 700.825 373.704C699.854 373.181 698.79 372.92 697.633 372.92C696.476 372.92 695.412 373.181 694.441 373.704C693.47 374.189 692.63 374.899 691.921 375.832C691.249 376.765 690.726 377.885 690.353 379.192C689.98 380.461 689.793 381.88 689.793 383.448C689.793 385.016 689.98 386.435 690.353 387.704C690.726 388.973 691.249 390.075 691.921 391.008C692.63 391.904 693.47 392.613 694.441 393.136C695.412 393.621 696.476 393.864 697.633 393.864ZM717.401 408.48V369.784H721.209L721.601 372.92H721.769C723.001 371.875 724.345 370.979 725.801 370.232C727.294 369.485 728.843 369.112 730.449 369.112C732.203 369.112 733.753 369.448 735.097 370.12C736.441 370.755 737.561 371.688 738.457 372.92C739.353 374.115 740.025 375.571 740.473 377.288C740.958 378.968 741.201 380.872 741.201 383C741.201 385.315 740.883 387.387 740.249 389.216C739.614 391.008 738.755 392.539 737.673 393.808C736.59 395.077 735.339 396.048 733.921 396.72C732.502 397.355 731.009 397.672 729.441 397.672C728.171 397.672 726.902 397.392 725.633 396.832C724.401 396.272 723.15 395.507 721.881 394.536L721.993 399.296V408.48H717.401ZM728.657 393.808C729.777 393.808 730.803 393.565 731.737 393.08C732.707 392.557 733.529 391.848 734.201 390.952C734.91 390.019 735.451 388.88 735.825 387.536C736.235 386.192 736.441 384.68 736.441 383C736.441 381.507 736.31 380.144 736.049 378.912C735.787 377.68 735.358 376.635 734.761 375.776C734.201 374.88 733.454 374.189 732.521 373.704C731.625 373.219 730.542 372.976 729.273 372.976C728.115 372.976 726.939 373.293 725.745 373.928C724.587 374.563 723.337 375.477 721.993 376.672V390.952C723.225 391.997 724.419 392.744 725.577 393.192C726.734 393.603 727.761 393.808 728.657 393.808ZM755.575 397.672C753.634 397.672 751.786 397.317 750.031 396.608C748.276 395.899 746.746 395.003 745.439 393.92L747.735 390.84C748.93 391.811 750.143 392.595 751.375 393.192C752.644 393.789 754.1 394.088 755.743 394.088C757.535 394.088 758.879 393.677 759.775 392.856C760.671 392.035 761.119 391.027 761.119 389.832C761.119 389.123 760.932 388.507 760.559 387.984C760.186 387.461 759.7 387.013 759.103 386.64C758.543 386.229 757.89 385.875 757.143 385.576C756.396 385.277 755.65 384.979 754.903 384.68C753.932 384.344 752.962 383.971 751.991 383.56C751.02 383.112 750.143 382.589 749.359 381.992C748.612 381.357 747.996 380.629 747.511 379.808C747.026 378.987 746.783 377.997 746.783 376.84C746.783 375.757 746.988 374.749 747.399 373.816C747.847 372.845 748.463 372.024 749.247 371.352C750.068 370.643 751.058 370.101 752.215 369.728C753.372 369.317 754.679 369.112 756.135 369.112C757.852 369.112 759.42 369.411 760.839 370.008C762.295 370.605 763.546 371.333 764.591 372.192L762.407 375.104C761.474 374.395 760.503 373.816 759.495 373.368C758.487 372.92 757.386 372.696 756.191 372.696C754.474 372.696 753.204 373.088 752.383 373.872C751.599 374.656 751.207 375.571 751.207 376.616C751.207 377.251 751.375 377.811 751.711 378.296C752.047 378.744 752.495 379.155 753.055 379.528C753.615 379.864 754.25 380.181 754.959 380.48C755.706 380.741 756.471 381.021 757.255 381.32C758.226 381.693 759.196 382.085 760.167 382.496C761.175 382.907 762.071 383.429 762.855 384.064C763.639 384.661 764.274 385.408 764.759 386.304C765.282 387.2 765.543 388.283 765.543 389.552C765.543 390.672 765.319 391.717 764.871 392.688C764.46 393.659 763.826 394.517 762.967 395.264C762.146 396.011 761.1 396.589 759.831 397C758.599 397.448 757.18 397.672 755.575 397.672ZM773.828 385.912L773.212 364.744L773.1 359.48H777.748L777.636 364.744L777.02 385.912H773.828ZM775.452 397.672C774.519 397.672 773.716 397.355 773.044 396.72C772.409 396.048 772.092 395.208 772.092 394.2C772.092 393.117 772.409 392.259 773.044 391.624C773.716 390.952 774.519 390.616 775.452 390.616C776.348 390.616 777.113 390.952 777.748 391.624C778.42 392.259 778.756 393.117 778.756 394.2C778.756 395.208 778.42 396.048 777.748 396.72C777.113 397.355 776.348 397.672 775.452 397.672ZM379.314 437L375.154 416.072H378.962L380.786 426.632C380.957 427.763 381.127 428.883 381.298 429.992C381.469 431.101 381.639 432.211 381.81 433.32H381.938C382.173 432.211 382.397 431.101 382.61 429.992C382.845 428.861 383.079 427.741 383.314 426.632L385.874 416.072H389.106L391.666 426.632C391.901 427.72 392.135 428.829 392.37 429.96C392.605 431.069 392.839 432.189 393.074 433.32H393.202C393.373 432.189 393.533 431.069 393.682 429.96C393.853 428.851 394.023 427.741 394.194 426.632L396.018 416.072H399.57L395.57 437H390.962L388.37 425.992C388.199 425.181 388.029 424.381 387.858 423.592C387.709 422.781 387.57 421.971 387.442 421.16H387.314C387.165 421.971 387.005 422.781 386.834 423.592C386.685 424.381 386.525 425.181 386.354 425.992L383.826 437H379.314ZM409.228 437.384C408.14 437.384 407.127 437.203 406.188 436.84C405.249 436.456 404.428 435.912 403.724 435.208C403.02 434.504 402.465 433.651 402.06 432.648C401.676 431.624 401.484 430.461 401.484 429.16C401.484 427.88 401.687 426.728 402.092 425.704C402.497 424.68 403.031 423.816 403.692 423.112C404.375 422.408 405.153 421.864 406.028 421.48C406.903 421.096 407.799 420.904 408.716 420.904C409.783 420.904 410.721 421.085 411.532 421.448C412.343 421.811 413.015 422.323 413.548 422.984C414.103 423.645 414.519 424.435 414.796 425.352C415.073 426.269 415.212 427.272 415.212 428.36C415.212 428.723 415.191 429.064 415.148 429.384C415.127 429.704 415.095 429.96 415.052 430.152H405.068C405.239 431.56 405.729 432.648 406.54 433.416C407.372 434.163 408.428 434.536 409.708 434.536C410.391 434.536 411.02 434.44 411.596 434.248C412.193 434.035 412.78 433.747 413.356 433.384L414.604 435.688C413.857 436.179 413.025 436.584 412.108 436.904C411.191 437.224 410.231 437.384 409.228 437.384ZM405.036 427.656H412.012C412.012 426.44 411.745 425.491 411.212 424.808C410.7 424.104 409.9 423.752 408.812 423.752C407.873 423.752 407.052 424.083 406.348 424.744C405.644 425.405 405.207 426.376 405.036 427.656ZM431.693 437.384C430.626 437.384 429.624 437.203 428.685 436.84C427.768 436.477 426.968 435.944 426.285 435.24C425.602 434.536 425.069 433.672 424.685 432.648C424.301 431.624 424.109 430.461 424.109 429.16C424.109 427.859 424.322 426.696 424.749 425.672C425.176 424.648 425.752 423.784 426.477 423.08C427.202 422.376 428.034 421.843 428.973 421.48C429.933 421.096 430.936 420.904 431.981 420.904C433.005 420.904 433.88 421.075 434.605 421.416C435.352 421.757 436.013 422.173 436.589 422.664L434.797 425.064C434.37 424.701 433.944 424.424 433.517 424.232C433.112 424.019 432.664 423.912 432.173 423.912C430.893 423.912 429.858 424.392 429.069 425.352C428.28 426.291 427.885 427.56 427.885 429.16C427.885 430.739 428.269 432.008 429.037 432.968C429.826 433.907 430.84 434.376 432.077 434.376C432.696 434.376 433.272 434.248 433.805 433.992C434.36 433.715 434.861 433.395 435.309 433.032L436.813 435.464C436.066 436.104 435.245 436.584 434.349 436.904C433.474 437.224 432.589 437.384 431.693 437.384ZM443.41 437.384C442.023 437.384 440.903 436.968 440.05 436.136C439.196 435.283 438.77 434.163 438.77 432.776C438.77 431.944 438.94 431.208 439.282 430.568C439.644 429.907 440.199 429.341 440.946 428.872C441.714 428.403 442.674 428.008 443.826 427.688C444.999 427.368 446.396 427.123 448.018 426.952C447.996 426.547 447.932 426.163 447.826 425.8C447.74 425.416 447.58 425.085 447.346 424.808C447.132 424.509 446.844 424.285 446.482 424.136C446.119 423.965 445.671 423.88 445.138 423.88C444.37 423.88 443.612 424.029 442.866 424.328C442.14 424.627 441.426 424.989 440.722 425.416L439.378 422.952C440.252 422.397 441.234 421.917 442.322 421.512C443.41 421.107 444.583 420.904 445.842 420.904C447.804 420.904 449.266 421.491 450.226 422.664C451.207 423.816 451.698 425.491 451.698 427.688V437H448.658L448.402 435.272H448.274C447.57 435.869 446.812 436.371 446.002 436.776C445.212 437.181 444.348 437.384 443.41 437.384ZM444.594 434.504C445.234 434.504 445.81 434.355 446.322 434.056C446.855 433.757 447.42 433.331 448.018 432.776V429.256C446.951 429.384 446.055 429.555 445.33 429.768C444.604 429.981 444.018 430.227 443.57 430.504C443.122 430.76 442.802 431.059 442.61 431.4C442.418 431.741 442.322 432.104 442.322 432.488C442.322 433.192 442.535 433.704 442.962 434.024C443.388 434.344 443.932 434.504 444.594 434.504ZM456.102 437V421.288H459.142L459.398 423.4H459.526C460.23 422.717 460.987 422.131 461.798 421.64C462.63 421.149 463.59 420.904 464.678 420.904C466.363 420.904 467.59 421.448 468.358 422.536C469.126 423.603 469.51 425.139 469.51 427.144V437H465.83V427.624C465.83 426.323 465.638 425.405 465.254 424.872C464.87 424.339 464.24 424.072 463.366 424.072C462.683 424.072 462.075 424.243 461.542 424.584C461.03 424.904 460.443 425.384 459.782 426.024V437H456.102ZM474.087 424.488L473.191 422.856C474.087 422.344 474.748 421.779 475.175 421.16C475.623 420.541 475.847 419.763 475.847 418.824C475.783 418.845 475.687 418.856 475.559 418.856C475.004 418.856 474.514 418.685 474.087 418.344C473.682 417.981 473.479 417.491 473.479 416.872C473.479 416.189 473.671 415.656 474.055 415.272C474.439 414.867 474.94 414.664 475.559 414.664C476.37 414.664 476.988 414.973 477.415 415.592C477.863 416.211 478.087 417.085 478.087 418.216C478.087 421.011 476.754 423.101 474.087 424.488ZM487.731 437.384C486.814 437.384 486.035 437.245 485.395 436.968C484.777 436.691 484.265 436.307 483.859 435.816C483.475 435.304 483.187 434.707 482.995 434.024C482.825 433.32 482.739 432.541 482.739 431.688V424.2H480.499V421.448L482.931 421.288L483.379 417H486.451V421.288H490.451V424.2H486.451V431.688C486.451 433.523 487.187 434.44 488.659 434.44C488.937 434.44 489.214 434.408 489.491 434.344C489.79 434.28 490.057 434.195 490.291 434.088L490.931 436.808C490.505 436.957 490.014 437.085 489.459 437.192C488.926 437.32 488.35 437.384 487.731 437.384ZM504.548 437.384C503.46 437.384 502.383 437.181 501.316 436.776C500.271 436.349 499.364 435.827 498.596 435.208L500.324 432.84C501.028 433.395 501.721 433.832 502.404 434.152C503.108 434.451 503.865 434.6 504.676 434.6C505.529 434.6 506.159 434.429 506.564 434.088C506.969 433.725 507.172 433.267 507.172 432.712C507.172 432.392 507.076 432.115 506.884 431.88C506.692 431.624 506.436 431.4 506.116 431.208C505.796 431.016 505.433 430.845 505.028 430.696C504.623 430.525 504.217 430.355 503.812 430.184C503.3 429.992 502.777 429.768 502.244 429.512C501.711 429.256 501.231 428.947 500.804 428.584C500.399 428.221 500.057 427.805 499.78 427.336C499.524 426.845 499.396 426.269 499.396 425.608C499.396 424.221 499.908 423.091 500.932 422.216C501.956 421.341 503.353 420.904 505.124 420.904C506.212 420.904 507.193 421.096 508.068 421.48C508.943 421.864 509.7 422.301 510.34 422.792L508.644 425.032C508.089 424.627 507.524 424.307 506.948 424.072C506.393 423.816 505.807 423.688 505.188 423.688C504.399 423.688 503.812 423.859 503.428 424.2C503.065 424.52 502.884 424.925 502.884 425.416C502.884 425.736 502.969 426.013 503.14 426.248C503.332 426.461 503.577 426.653 503.876 426.824C504.175 426.995 504.516 427.155 504.9 427.304C505.305 427.453 505.721 427.603 506.148 427.752C506.681 427.944 507.215 428.168 507.748 428.424C508.281 428.659 508.761 428.957 509.188 429.32C509.636 429.683 509.988 430.131 510.244 430.664C510.521 431.176 510.66 431.795 510.66 432.52C510.66 433.203 510.521 433.843 510.244 434.44C509.988 435.016 509.604 435.528 509.092 435.976C508.58 436.403 507.94 436.744 507.172 437C506.404 437.256 505.529 437.384 504.548 437.384ZM520.665 437.384C519.577 437.384 518.564 437.203 517.625 436.84C516.687 436.456 515.865 435.912 515.161 435.208C514.457 434.504 513.903 433.651 513.497 432.648C513.113 431.624 512.921 430.461 512.921 429.16C512.921 427.88 513.124 426.728 513.529 425.704C513.935 424.68 514.468 423.816 515.129 423.112C515.812 422.408 516.591 421.864 517.465 421.48C518.34 421.096 519.236 420.904 520.153 420.904C521.22 420.904 522.159 421.085 522.969 421.448C523.78 421.811 524.452 422.323 524.985 422.984C525.54 423.645 525.956 424.435 526.233 425.352C526.511 426.269 526.649 427.272 526.649 428.36C526.649 428.723 526.628 429.064 526.585 429.384C526.564 429.704 526.532 429.96 526.489 430.152H516.505C516.676 431.56 517.167 432.648 517.977 433.416C518.809 434.163 519.865 434.536 521.145 434.536C521.828 434.536 522.457 434.44 523.033 434.248C523.631 434.035 524.217 433.747 524.793 433.384L526.041 435.688C525.295 436.179 524.463 436.584 523.545 436.904C522.628 437.224 521.668 437.384 520.665 437.384ZM516.473 427.656H523.449C523.449 426.44 523.183 425.491 522.649 424.808C522.137 424.104 521.337 423.752 520.249 423.752C519.311 423.752 518.489 424.083 517.785 424.744C517.081 425.405 516.644 426.376 516.473 427.656ZM536.884 437.384C535.796 437.384 534.783 437.203 533.844 436.84C532.905 436.456 532.084 435.912 531.38 435.208C530.676 434.504 530.121 433.651 529.716 432.648C529.332 431.624 529.14 430.461 529.14 429.16C529.14 427.88 529.343 426.728 529.748 425.704C530.153 424.68 530.687 423.816 531.348 423.112C532.031 422.408 532.809 421.864 533.684 421.48C534.559 421.096 535.455 420.904 536.372 420.904C537.439 420.904 538.377 421.085 539.188 421.448C539.999 421.811 540.671 422.323 541.204 422.984C541.759 423.645 542.175 424.435 542.452 425.352C542.729 426.269 542.868 427.272 542.868 428.36C542.868 428.723 542.847 429.064 542.804 429.384C542.783 429.704 542.751 429.96 542.708 430.152H532.724C532.895 431.56 533.385 432.648 534.196 433.416C535.028 434.163 536.084 434.536 537.364 434.536C538.047 434.536 538.676 434.44 539.252 434.248C539.849 434.035 540.436 433.747 541.012 433.384L542.26 435.688C541.513 436.179 540.681 436.584 539.764 436.904C538.847 437.224 537.887 437.384 536.884 437.384ZM532.692 427.656H539.668C539.668 426.44 539.401 425.491 538.868 424.808C538.356 424.104 537.556 423.752 536.468 423.752C535.529 423.752 534.708 424.083 534.004 424.744C533.3 425.405 532.863 426.376 532.692 427.656ZM546.383 437V421.288H549.423L549.679 423.432H549.807C550.468 422.728 551.183 422.131 551.951 421.64C552.74 421.149 553.626 420.904 554.607 420.904C555.759 420.904 556.676 421.149 557.359 421.64C558.063 422.131 558.596 422.824 558.959 423.72C559.706 422.909 560.484 422.237 561.295 421.704C562.106 421.171 563.012 420.904 564.015 420.904C565.679 420.904 566.906 421.448 567.695 422.536C568.484 423.603 568.879 425.139 568.879 427.144V437H565.167V427.624C565.167 426.323 564.964 425.405 564.559 424.872C564.175 424.339 563.578 424.072 562.767 424.072C561.786 424.072 560.687 424.723 559.471 426.024V437H555.791V427.624C555.791 426.323 555.588 425.405 555.183 424.872C554.799 424.339 554.191 424.072 553.359 424.072C552.378 424.072 551.279 424.723 550.063 426.024V437H546.383ZM585.294 437.384C584.377 437.384 583.598 437.245 582.958 436.968C582.339 436.691 581.827 436.307 581.422 435.816C581.038 435.304 580.75 434.707 580.558 434.024C580.387 433.32 580.302 432.541 580.302 431.688V424.2H578.062V421.448L580.494 421.288L580.942 417H584.014V421.288H588.014V424.2H584.014V431.688C584.014 433.523 584.75 434.44 586.222 434.44C586.499 434.44 586.777 434.408 587.054 434.344C587.353 434.28 587.619 434.195 587.854 434.088L588.494 436.808C588.067 436.957 587.577 437.085 587.022 437.192C586.489 437.32 585.913 437.384 585.294 437.384ZM597.252 437.384C596.271 437.384 595.332 437.203 594.436 436.84C593.54 436.477 592.74 435.944 592.036 435.24C591.354 434.536 590.81 433.672 590.404 432.648C589.999 431.624 589.796 430.461 589.796 429.16C589.796 427.859 589.999 426.696 590.404 425.672C590.81 424.648 591.354 423.784 592.036 423.08C592.74 422.376 593.54 421.843 594.436 421.48C595.332 421.096 596.271 420.904 597.252 420.904C598.234 420.904 599.172 421.096 600.068 421.48C600.986 421.843 601.786 422.376 602.468 423.08C603.151 423.784 603.695 424.648 604.1 425.672C604.527 426.696 604.74 427.859 604.74 429.16C604.74 430.461 604.527 431.624 604.1 432.648C603.695 433.672 603.151 434.536 602.468 435.24C601.786 435.944 600.986 436.477 600.068 436.84C599.172 437.203 598.234 437.384 597.252 437.384ZM597.252 434.376C598.404 434.376 599.311 433.907 599.972 432.968C600.634 432.008 600.964 430.739 600.964 429.16C600.964 427.56 600.634 426.291 599.972 425.352C599.311 424.392 598.404 423.912 597.252 423.912C596.1 423.912 595.194 424.392 594.532 425.352C593.892 426.291 593.572 427.56 593.572 429.16C593.572 430.739 593.892 432.008 594.532 432.968C595.194 433.907 596.1 434.376 597.252 434.376ZM615.429 437V424.2H613.317V421.448L615.429 421.288V419.656C615.429 418.845 615.525 418.099 615.717 417.416C615.909 416.712 616.218 416.115 616.645 415.624C617.072 415.112 617.605 414.717 618.245 414.44C618.906 414.163 619.706 414.024 620.645 414.024C621.2 414.024 621.722 414.077 622.213 414.184C622.725 414.291 623.162 414.419 623.525 414.568L622.821 417.32C622.245 417.064 621.669 416.936 621.093 416.936C619.77 416.936 619.109 417.821 619.109 419.592V421.288H622.181V424.2H619.109V437H615.429ZM624.945 437V421.288H628.625V437H624.945ZM626.801 418.536C626.14 418.536 625.596 418.344 625.169 417.96C624.743 417.576 624.529 417.075 624.529 416.456C624.529 415.837 624.743 415.336 625.169 414.952C625.596 414.547 626.14 414.344 626.801 414.344C627.463 414.344 628.007 414.547 628.433 414.952C628.86 415.336 629.073 415.837 629.073 416.456C629.073 417.075 628.86 417.576 628.433 417.96C628.007 418.344 627.463 418.536 626.801 418.536ZM633.32 437V421.288H636.36L636.616 423.4H636.744C637.448 422.717 638.206 422.131 639.016 421.64C639.848 421.149 640.808 420.904 641.896 420.904C643.582 420.904 644.808 421.448 645.576 422.536C646.344 423.603 646.728 425.139 646.728 427.144V437H643.048V427.624C643.048 426.323 642.856 425.405 642.472 424.872C642.088 424.339 641.459 424.072 640.584 424.072C639.902 424.072 639.294 424.243 638.76 424.584C638.248 424.904 637.662 425.384 637 426.024V437H633.32ZM656.731 437.384C654.747 437.384 653.168 436.669 651.995 435.24C650.843 433.789 650.267 431.763 650.267 429.16C650.267 427.88 650.448 426.728 650.811 425.704C651.195 424.68 651.696 423.816 652.315 423.112C652.933 422.408 653.637 421.864 654.427 421.48C655.237 421.096 656.069 420.904 656.923 420.904C657.819 420.904 658.576 421.064 659.195 421.384C659.813 421.683 660.432 422.099 661.051 422.632L660.923 420.104V414.408H664.603V437H661.563L661.307 435.304H661.179C660.603 435.88 659.931 436.371 659.163 436.776C658.395 437.181 657.584 437.384 656.731 437.384ZM657.627 434.344C658.8 434.344 659.899 433.757 660.923 432.584V425.256C660.368 424.765 659.824 424.424 659.291 424.232C658.779 424.04 658.256 423.944 657.723 423.944C656.699 423.944 655.835 424.392 655.131 425.288C654.427 426.184 654.075 427.464 654.075 429.128C654.075 430.835 654.373 432.136 654.971 433.032C655.589 433.907 656.475 434.344 657.627 434.344ZM681.231 437.384C680.314 437.384 679.535 437.245 678.895 436.968C678.277 436.691 677.765 436.307 677.359 435.816C676.975 435.304 676.687 434.707 676.495 434.024C676.325 433.32 676.239 432.541 676.239 431.688V424.2H673.999V421.448L676.431 421.288L676.879 417H679.951V421.288H683.951V424.2H679.951V431.688C679.951 433.523 680.687 434.44 682.159 434.44C682.437 434.44 682.714 434.408 682.991 434.344C683.29 434.28 683.557 434.195 683.791 434.088L684.431 436.808C684.005 436.957 683.514 437.085 682.959 437.192C682.426 437.32 681.85 437.384 681.231 437.384ZM687.258 437V414.408H690.938V420.232L690.81 423.272C691.471 422.653 692.197 422.109 692.986 421.64C693.797 421.149 694.746 420.904 695.834 420.904C697.519 420.904 698.746 421.448 699.514 422.536C700.282 423.603 700.666 425.139 700.666 427.144V437H696.986V427.624C696.986 426.323 696.794 425.405 696.41 424.872C696.026 424.339 695.397 424.072 694.522 424.072C693.839 424.072 693.231 424.243 692.698 424.584C692.186 424.904 691.599 425.384 690.938 426.024V437H687.258ZM711.822 437.384C710.734 437.384 709.72 437.203 708.782 436.84C707.843 436.456 707.022 435.912 706.318 435.208C705.614 434.504 705.059 433.651 704.654 432.648C704.27 431.624 704.078 430.461 704.078 429.16C704.078 427.88 704.28 426.728 704.686 425.704C705.091 424.68 705.624 423.816 706.286 423.112C706.968 422.408 707.747 421.864 708.622 421.48C709.496 421.096 710.392 420.904 711.31 420.904C712.376 420.904 713.315 421.085 714.126 421.448C714.936 421.811 715.608 422.323 716.142 422.984C716.696 423.645 717.112 424.435 717.39 425.352C717.667 426.269 717.806 427.272 717.806 428.36C717.806 428.723 717.784 429.064 717.742 429.384C717.72 429.704 717.688 429.96 717.646 430.152H707.662C707.832 431.56 708.323 432.648 709.134 433.416C709.966 434.163 711.022 434.536 712.302 434.536C712.984 434.536 713.614 434.44 714.19 434.248C714.787 434.035 715.374 433.747 715.95 433.384L717.198 435.688C716.451 436.179 715.619 436.584 714.702 436.904C713.784 437.224 712.824 437.384 711.822 437.384ZM707.63 427.656H714.606C714.606 426.44 714.339 425.491 713.806 424.808C713.294 424.104 712.494 423.752 711.406 423.752C710.467 423.752 709.646 424.083 708.942 424.744C708.238 425.405 707.8 426.376 707.63 427.656ZM727.727 443.208V421.288H730.767L731.023 422.952H731.151C731.812 422.397 732.548 421.917 733.359 421.512C734.169 421.107 735.012 420.904 735.887 420.904C736.868 420.904 737.732 421.096 738.479 421.48C739.247 421.843 739.897 422.376 740.431 423.08C740.964 423.784 741.369 424.627 741.647 425.608C741.924 426.589 742.063 427.688 742.063 428.904C742.063 430.248 741.871 431.453 741.487 432.52C741.124 433.565 740.633 434.451 740.015 435.176C739.396 435.88 738.681 436.424 737.871 436.808C737.06 437.192 736.217 437.384 735.343 437.384C734.66 437.384 733.977 437.235 733.295 436.936C732.612 436.637 731.951 436.211 731.311 435.656L731.407 438.28V443.208H727.727ZM734.575 434.344C735.62 434.344 736.495 433.896 737.199 433C737.903 432.083 738.255 430.728 738.255 428.936C738.255 427.357 737.988 426.131 737.455 425.256C736.921 424.381 736.057 423.944 734.863 423.944C733.753 423.944 732.601 424.531 731.407 425.704V433.032C731.983 433.523 732.537 433.864 733.071 434.056C733.604 434.248 734.105 434.344 734.575 434.344ZM749.222 437.384C747.835 437.384 746.715 436.968 745.862 436.136C745.009 435.283 744.582 434.163 744.582 432.776C744.582 431.944 744.753 431.208 745.094 430.568C745.457 429.907 746.011 429.341 746.758 428.872C747.526 428.403 748.486 428.008 749.638 427.688C750.811 427.368 752.209 427.123 753.83 426.952C753.809 426.547 753.745 426.163 753.638 425.8C753.553 425.416 753.393 425.085 753.158 424.808C752.945 424.509 752.657 424.285 752.294 424.136C751.931 423.965 751.483 423.88 750.95 423.88C750.182 423.88 749.425 424.029 748.678 424.328C747.953 424.627 747.238 424.989 746.534 425.416L745.19 422.952C746.065 422.397 747.046 421.917 748.134 421.512C749.222 421.107 750.395 420.904 751.654 420.904C753.617 420.904 755.078 421.491 756.038 422.664C757.019 423.816 757.51 425.491 757.51 427.688V437H754.47L754.214 435.272H754.086C753.382 435.869 752.625 436.371 751.814 436.776C751.025 437.181 750.161 437.384 749.222 437.384ZM750.406 434.504C751.046 434.504 751.622 434.355 752.134 434.056C752.667 433.757 753.233 433.331 753.83 432.776V429.256C752.763 429.384 751.867 429.555 751.142 429.768C750.417 429.981 749.83 430.227 749.382 430.504C748.934 430.76 748.614 431.059 748.422 431.4C748.23 431.741 748.134 432.104 748.134 432.488C748.134 433.192 748.347 433.704 748.774 434.024C749.201 434.344 749.745 434.504 750.406 434.504ZM767.386 443.944C766.447 443.944 765.573 443.859 764.762 443.688C763.973 443.517 763.29 443.261 762.714 442.92C762.138 442.579 761.679 442.152 761.338 441.64C761.018 441.128 760.858 440.531 760.858 439.848C760.858 439.187 761.05 438.568 761.434 437.992C761.818 437.437 762.373 436.936 763.098 436.488V436.36C762.693 436.104 762.351 435.763 762.074 435.336C761.818 434.909 761.69 434.376 761.69 433.736C761.69 433.117 761.861 432.563 762.202 432.072C762.565 431.56 762.97 431.144 763.418 430.824V430.696C762.885 430.291 762.405 429.736 761.978 429.032C761.573 428.307 761.37 427.475 761.37 426.536C761.37 425.64 761.541 424.84 761.882 424.136C762.223 423.432 762.671 422.845 763.226 422.376C763.802 421.885 764.463 421.523 765.21 421.288C765.957 421.032 766.746 420.904 767.578 420.904C768.005 420.904 768.41 420.947 768.794 421.032C769.199 421.096 769.562 421.181 769.882 421.288H775.514V424.008H772.634C772.89 424.307 773.103 424.691 773.274 425.16C773.445 425.608 773.53 426.109 773.53 426.664C773.53 427.539 773.37 428.307 773.05 428.968C772.751 429.629 772.335 430.184 771.802 430.632C771.269 431.08 770.639 431.421 769.914 431.656C769.189 431.891 768.41 432.008 767.578 432.008C767.237 432.008 766.885 431.976 766.522 431.912C766.159 431.848 765.797 431.741 765.434 431.592C765.199 431.805 765.007 432.019 764.858 432.232C764.73 432.445 764.666 432.733 764.666 433.096C764.666 433.544 764.847 433.896 765.21 434.152C765.594 434.408 766.266 434.536 767.226 434.536H770.01C771.909 434.536 773.338 434.845 774.298 435.464C775.279 436.061 775.77 437.043 775.77 438.408C775.77 439.176 775.567 439.901 775.162 440.584C774.778 441.267 774.223 441.853 773.498 442.344C772.773 442.835 771.887 443.219 770.842 443.496C769.818 443.795 768.666 443.944 767.386 443.944ZM767.578 429.704C768.325 429.704 768.965 429.437 769.498 428.904C770.031 428.349 770.298 427.56 770.298 426.536C770.298 425.555 770.031 424.797 769.498 424.264C768.986 423.709 768.346 423.432 767.578 423.432C766.81 423.432 766.159 423.699 765.626 424.232C765.093 424.765 764.826 425.533 764.826 426.536C764.826 427.56 765.093 428.349 765.626 428.904C766.159 429.437 766.81 429.704 767.578 429.704ZM767.962 441.544C769.242 441.544 770.266 441.288 771.034 440.776C771.823 440.285 772.218 439.699 772.218 439.016C772.218 438.397 771.973 437.981 771.482 437.768C771.013 437.555 770.33 437.448 769.434 437.448H767.29C766.437 437.448 765.722 437.373 765.146 437.224C764.335 437.843 763.93 438.536 763.93 439.304C763.93 440.008 764.282 440.552 764.986 440.936C765.711 441.341 766.703 441.544 767.962 441.544ZM784.759 437.384C783.671 437.384 782.658 437.203 781.719 436.84C780.78 436.456 779.959 435.912 779.255 435.208C778.551 434.504 777.996 433.651 777.591 432.648C777.207 431.624 777.015 430.461 777.015 429.16C777.015 427.88 777.218 426.728 777.623 425.704C778.028 424.68 778.562 423.816 779.223 423.112C779.906 422.408 780.684 421.864 781.559 421.48C782.434 421.096 783.33 420.904 784.247 420.904C785.314 420.904 786.252 421.085 787.063 421.448C787.874 421.811 788.546 422.323 789.079 422.984C789.634 423.645 790.05 424.435 790.327 425.352C790.604 426.269 790.743 427.272 790.743 428.36C790.743 428.723 790.722 429.064 790.679 429.384C790.658 429.704 790.626 429.96 790.583 430.152H780.599C780.77 431.56 781.26 432.648 782.071 433.416C782.903 434.163 783.959 434.536 785.239 434.536C785.922 434.536 786.551 434.44 787.127 434.248C787.724 434.035 788.311 433.747 788.887 433.384L790.135 435.688C789.388 436.179 788.556 436.584 787.639 436.904C786.722 437.224 785.762 437.384 784.759 437.384ZM780.567 427.656H787.543C787.543 426.44 787.276 425.491 786.743 424.808C786.231 424.104 785.431 423.752 784.343 423.752C783.404 423.752 782.583 424.083 781.879 424.744C781.175 425.405 780.738 426.376 780.567 427.656ZM801.72 443.464C801.293 443.464 800.92 443.432 800.6 443.368C800.28 443.325 799.971 443.251 799.672 443.144L800.344 440.264C800.493 440.307 800.664 440.349 800.856 440.392C801.069 440.456 801.272 440.488 801.464 440.488C802.296 440.488 802.957 440.232 803.448 439.72C803.96 439.229 804.344 438.589 804.6 437.8L804.888 436.808L798.712 421.288H802.456L805.176 429C805.411 429.683 805.635 430.408 805.848 431.176C806.083 431.923 806.317 432.669 806.552 433.416H806.68C806.872 432.691 807.064 431.955 807.256 431.208C807.469 430.44 807.672 429.704 807.864 429L810.232 421.288H813.784L808.088 437.704C807.768 438.6 807.416 439.4 807.032 440.104C806.648 440.808 806.2 441.405 805.688 441.896C805.197 442.408 804.621 442.792 803.96 443.048C803.32 443.325 802.573 443.464 801.72 443.464ZM822.752 437.384C821.771 437.384 820.832 437.203 819.936 436.84C819.04 436.477 818.24 435.944 817.536 435.24C816.854 434.536 816.31 433.672 815.904 432.648C815.499 431.624 815.296 430.461 815.296 429.16C815.296 427.859 815.499 426.696 815.904 425.672C816.31 424.648 816.854 423.784 817.536 423.08C818.24 422.376 819.04 421.843 819.936 421.48C820.832 421.096 821.771 420.904 822.752 420.904C823.734 420.904 824.672 421.096 825.568 421.48C826.486 421.843 827.286 422.376 827.968 423.08C828.651 423.784 829.195 424.648 829.6 425.672C830.027 426.696 830.24 427.859 830.24 429.16C830.24 430.461 830.027 431.624 829.6 432.648C829.195 433.672 828.651 434.536 827.968 435.24C827.286 435.944 826.486 436.477 825.568 436.84C824.672 437.203 823.734 437.384 822.752 437.384ZM822.752 434.376C823.904 434.376 824.811 433.907 825.472 432.968C826.134 432.008 826.464 430.739 826.464 429.16C826.464 427.56 826.134 426.291 825.472 425.352C824.811 424.392 823.904 423.912 822.752 423.912C821.6 423.912 820.694 424.392 820.032 425.352C819.392 426.291 819.072 427.56 819.072 429.16C819.072 430.739 819.392 432.008 820.032 432.968C820.694 433.907 821.6 434.376 822.752 434.376ZM838.555 437.384C836.87 437.384 835.643 436.851 834.875 435.784C834.107 434.696 833.723 433.149 833.723 431.144V421.288H837.403V430.664C837.403 431.965 837.595 432.883 837.979 433.416C838.363 433.949 838.982 434.216 839.835 434.216C840.518 434.216 841.115 434.045 841.627 433.704C842.16 433.363 842.726 432.808 843.323 432.04V421.288H847.003V437H843.995L843.707 434.696H843.611C842.928 435.507 842.182 436.157 841.371 436.648C840.582 437.139 839.643 437.384 838.555 437.384ZM852.368 424.488L851.472 422.856C852.368 422.344 853.029 421.779 853.456 421.16C853.904 420.541 854.128 419.763 854.128 418.824C854.064 418.845 853.968 418.856 853.84 418.856C853.285 418.856 852.795 418.685 852.368 418.344C851.963 417.981 851.76 417.491 851.76 416.872C851.76 416.189 851.952 415.656 852.336 415.272C852.72 414.867 853.221 414.664 853.84 414.664C854.651 414.664 855.269 414.973 855.696 415.592C856.144 416.211 856.368 417.085 856.368 418.216C856.368 421.011 855.035 423.101 852.368 424.488ZM860.227 437V421.288H863.267L863.523 424.072H863.651C864.205 423.048 864.877 422.269 865.667 421.736C866.456 421.181 867.267 420.904 868.099 420.904C868.845 420.904 869.443 421.011 869.891 421.224L869.251 424.424C868.973 424.339 868.717 424.275 868.483 424.232C868.248 424.189 867.96 424.168 867.619 424.168C867 424.168 866.349 424.413 865.667 424.904C864.984 425.373 864.397 426.205 863.907 427.4V437H860.227ZM878.572 437.384C877.484 437.384 876.47 437.203 875.532 436.84C874.593 436.456 873.772 435.912 873.068 435.208C872.364 434.504 871.809 433.651 871.404 432.648C871.02 431.624 870.828 430.461 870.828 429.16C870.828 427.88 871.03 426.728 871.436 425.704C871.841 424.68 872.374 423.816 873.036 423.112C873.718 422.408 874.497 421.864 875.372 421.48C876.246 421.096 877.142 420.904 878.06 420.904C879.126 420.904 880.065 421.085 880.876 421.448C881.686 421.811 882.358 422.323 882.892 422.984C883.446 423.645 883.862 424.435 884.14 425.352C884.417 426.269 884.556 427.272 884.556 428.36C884.556 428.723 884.534 429.064 884.492 429.384C884.47 429.704 884.438 429.96 884.396 430.152H874.412C874.582 431.56 875.073 432.648 875.884 433.416C876.716 434.163 877.772 434.536 879.052 434.536C879.734 434.536 880.364 434.44 880.94 434.248C881.537 434.035 882.124 433.747 882.7 433.384L883.948 435.688C883.201 436.179 882.369 436.584 881.452 436.904C880.534 437.224 879.574 437.384 878.572 437.384ZM874.38 427.656H881.356C881.356 426.44 881.089 425.491 880.556 424.808C880.044 424.104 879.244 423.752 878.156 423.752C877.217 423.752 876.396 424.083 875.692 424.744C874.988 425.405 874.55 426.376 874.38 427.656ZM898.061 437.384C896.738 437.384 895.81 436.989 895.277 436.2C894.743 435.411 894.477 434.333 894.477 432.968V414.408H898.157V433.16C898.157 433.608 898.242 433.928 898.413 434.12C898.583 434.291 898.765 434.376 898.957 434.376C899.042 434.376 899.117 434.376 899.181 434.376C899.266 434.376 899.383 434.355 899.533 434.312L900.013 437.064C899.522 437.277 898.871 437.384 898.061 437.384ZM909.596 437.384C908.615 437.384 907.676 437.203 906.78 436.84C905.884 436.477 905.084 435.944 904.38 435.24C903.697 434.536 903.153 433.672 902.748 432.648C902.343 431.624 902.14 430.461 902.14 429.16C902.14 427.859 902.343 426.696 902.748 425.672C903.153 424.648 903.697 423.784 904.38 423.08C905.084 422.376 905.884 421.843 906.78 421.48C907.676 421.096 908.615 420.904 909.596 420.904C910.577 420.904 911.516 421.096 912.412 421.48C913.329 421.843 914.129 422.376 914.812 423.08C915.495 423.784 916.039 424.648 916.444 425.672C916.871 426.696 917.084 427.859 917.084 429.16C917.084 430.461 916.871 431.624 916.444 432.648C916.039 433.672 915.495 434.536 914.812 435.24C914.129 435.944 913.329 436.477 912.412 436.84C911.516 437.203 910.577 437.384 909.596 437.384ZM909.596 434.376C910.748 434.376 911.655 433.907 912.316 432.968C912.977 432.008 913.308 430.739 913.308 429.16C913.308 427.56 912.977 426.291 912.316 425.352C911.655 424.392 910.748 423.912 909.596 423.912C908.444 423.912 907.537 424.392 906.876 425.352C906.236 426.291 905.916 427.56 905.916 429.16C905.916 430.739 906.236 432.008 906.876 432.968C907.537 433.907 908.444 434.376 909.596 434.376ZM927.159 437.384C926.177 437.384 925.239 437.203 924.343 436.84C923.447 436.477 922.647 435.944 921.943 435.24C921.26 434.536 920.716 433.672 920.311 432.648C919.905 431.624 919.703 430.461 919.703 429.16C919.703 427.859 919.905 426.696 920.311 425.672C920.716 424.648 921.26 423.784 921.943 423.08C922.647 422.376 923.447 421.843 924.343 421.48C925.239 421.096 926.177 420.904 927.159 420.904C928.14 420.904 929.079 421.096 929.975 421.48C930.892 421.843 931.692 422.376 932.375 423.08C933.057 423.784 933.601 424.648 934.007 425.672C934.433 426.696 934.647 427.859 934.647 429.16C934.647 430.461 934.433 431.624 934.007 432.648C933.601 433.672 933.057 434.536 932.375 435.24C931.692 435.944 930.892 436.477 929.975 436.84C929.079 437.203 928.14 437.384 927.159 437.384ZM927.159 434.376C928.311 434.376 929.217 433.907 929.879 432.968C930.54 432.008 930.871 430.739 930.871 429.16C930.871 427.56 930.54 426.291 929.879 425.352C929.217 424.392 928.311 423.912 927.159 423.912C926.007 423.912 925.1 424.392 924.439 425.352C923.799 426.291 923.479 427.56 923.479 429.16C923.479 430.739 923.799 432.008 924.439 432.968C925.1 433.907 926.007 434.376 927.159 434.376ZM938.289 437V414.408H941.905V428.52H942.001L947.825 421.288H951.857L946.481 427.688L952.401 437H948.401L944.369 430.184L941.905 433V437H938.289ZM955.008 437V421.288H958.688V437H955.008ZM956.864 418.536C956.203 418.536 955.659 418.344 955.232 417.96C954.805 417.576 954.592 417.075 954.592 416.456C954.592 415.837 954.805 415.336 955.232 414.952C955.659 414.547 956.203 414.344 956.864 414.344C957.525 414.344 958.069 414.547 958.496 414.952C958.923 415.336 959.136 415.837 959.136 416.456C959.136 417.075 958.923 417.576 958.496 417.96C958.069 418.344 957.525 418.536 956.864 418.536ZM963.383 437V421.288H966.423L966.679 423.4H966.807C967.511 422.717 968.268 422.131 969.079 421.64C969.911 421.149 970.871 420.904 971.959 420.904C973.644 420.904 974.871 421.448 975.639 422.536C976.407 423.603 976.791 425.139 976.791 427.144V437H973.111V427.624C973.111 426.323 972.919 425.405 972.535 424.872C972.151 424.339 971.522 424.072 970.647 424.072C969.964 424.072 969.356 424.243 968.823 424.584C968.311 424.904 967.724 425.384 967.063 426.024V437H963.383ZM986.761 443.944C985.822 443.944 984.948 443.859 984.137 443.688C983.348 443.517 982.665 443.261 982.089 442.92C981.513 442.579 981.054 442.152 980.713 441.64C980.393 441.128 980.233 440.531 980.233 439.848C980.233 439.187 980.425 438.568 980.809 437.992C981.193 437.437 981.748 436.936 982.473 436.488V436.36C982.068 436.104 981.726 435.763 981.449 435.336C981.193 434.909 981.065 434.376 981.065 433.736C981.065 433.117 981.236 432.563 981.577 432.072C981.94 431.56 982.345 431.144 982.793 430.824V430.696C982.26 430.291 981.78 429.736 981.353 429.032C980.948 428.307 980.745 427.475 980.745 426.536C980.745 425.64 980.916 424.84 981.257 424.136C981.598 423.432 982.046 422.845 982.601 422.376C983.177 421.885 983.838 421.523 984.585 421.288C985.332 421.032 986.121 420.904 986.953 420.904C987.38 420.904 987.785 420.947 988.169 421.032C988.574 421.096 988.937 421.181 989.257 421.288H994.889V424.008H992.009C992.265 424.307 992.478 424.691 992.649 425.16C992.82 425.608 992.905 426.109 992.905 426.664C992.905 427.539 992.745 428.307 992.425 428.968C992.126 429.629 991.71 430.184 991.177 430.632C990.644 431.08 990.014 431.421 989.289 431.656C988.564 431.891 987.785 432.008 986.953 432.008C986.612 432.008 986.26 431.976 985.897 431.912C985.534 431.848 985.172 431.741 984.809 431.592C984.574 431.805 984.382 432.019 984.233 432.232C984.105 432.445 984.041 432.733 984.041 433.096C984.041 433.544 984.222 433.896 984.585 434.152C984.969 434.408 985.641 434.536 986.601 434.536H989.385C991.284 434.536 992.713 434.845 993.673 435.464C994.654 436.061 995.145 437.043 995.145 438.408C995.145 439.176 994.942 439.901 994.537 440.584C994.153 441.267 993.598 441.853 992.873 442.344C992.148 442.835 991.262 443.219 990.217 443.496C989.193 443.795 988.041 443.944 986.761 443.944ZM986.953 429.704C987.7 429.704 988.34 429.437 988.873 428.904C989.406 428.349 989.673 427.56 989.673 426.536C989.673 425.555 989.406 424.797 988.873 424.264C988.361 423.709 987.721 423.432 986.953 423.432C986.185 423.432 985.534 423.699 985.001 424.232C984.468 424.765 984.201 425.533 984.201 426.536C984.201 427.56 984.468 428.349 985.001 428.904C985.534 429.437 986.185 429.704 986.953 429.704ZM987.337 441.544C988.617 441.544 989.641 441.288 990.409 440.776C991.198 440.285 991.593 439.699 991.593 439.016C991.593 438.397 991.348 437.981 990.857 437.768C990.388 437.555 989.705 437.448 988.809 437.448H986.665C985.812 437.448 985.097 437.373 984.521 437.224C983.71 437.843 983.305 438.536 983.305 439.304C983.305 440.008 983.657 440.552 984.361 440.936C985.086 441.341 986.078 441.544 987.337 441.544ZM1004.96 437V424.2H1002.85V421.448L1004.96 421.288V419.656C1004.96 418.845 1005.06 418.099 1005.25 417.416C1005.44 416.712 1005.75 416.115 1006.18 415.624C1006.6 415.112 1007.14 414.717 1007.78 414.44C1008.44 414.163 1009.24 414.024 1010.18 414.024C1010.73 414.024 1011.25 414.077 1011.74 414.184C1012.26 414.291 1012.69 414.419 1013.06 414.568L1012.35 417.32C1011.78 417.064 1011.2 416.936 1010.62 416.936C1009.3 416.936 1008.64 417.821 1008.64 419.592V421.288H1011.71V424.2H1008.64V437H1004.96ZM1020.6 437.384C1019.61 437.384 1018.68 437.203 1017.78 436.84C1016.88 436.477 1016.08 435.944 1015.38 435.24C1014.7 434.536 1014.15 433.672 1013.75 432.648C1013.34 431.624 1013.14 430.461 1013.14 429.16C1013.14 427.859 1013.34 426.696 1013.75 425.672C1014.15 424.648 1014.7 423.784 1015.38 423.08C1016.08 422.376 1016.88 421.843 1017.78 421.48C1018.68 421.096 1019.61 420.904 1020.6 420.904C1021.58 420.904 1022.52 421.096 1023.41 421.48C1024.33 421.843 1025.13 422.376 1025.81 423.08C1026.49 423.784 1027.04 424.648 1027.44 425.672C1027.87 426.696 1028.08 427.859 1028.08 429.16C1028.08 430.461 1027.87 431.624 1027.44 432.648C1027.04 433.672 1026.49 434.536 1025.81 435.24C1025.13 435.944 1024.33 436.477 1023.41 436.84C1022.52 437.203 1021.58 437.384 1020.6 437.384ZM1020.6 434.376C1021.75 434.376 1022.65 433.907 1023.32 432.968C1023.98 432.008 1024.31 430.739 1024.31 429.16C1024.31 427.56 1023.98 426.291 1023.32 425.352C1022.65 424.392 1021.75 423.912 1020.6 423.912C1019.44 423.912 1018.54 424.392 1017.88 425.352C1017.24 426.291 1016.92 427.56 1016.92 429.16C1016.92 430.739 1017.24 432.008 1017.88 432.968C1018.54 433.907 1019.44 434.376 1020.6 434.376ZM1031.73 437V421.288H1034.77L1035.02 424.072H1035.15C1035.71 423.048 1036.38 422.269 1037.17 421.736C1037.96 421.181 1038.77 420.904 1039.6 420.904C1040.35 420.904 1040.94 421.011 1041.39 421.224L1040.75 424.424C1040.47 424.339 1040.22 424.275 1039.98 424.232C1039.75 424.189 1039.46 424.168 1039.12 424.168C1038.5 424.168 1037.85 424.413 1037.17 424.904C1036.48 425.373 1035.9 426.205 1035.41 427.4V437H1031.73ZM1043.4 437.384C1042.72 437.384 1042.14 437.149 1041.67 436.68C1041.22 436.211 1041 435.613 1041 434.888C1041 434.163 1041.22 433.565 1041.67 433.096C1042.14 432.627 1042.72 432.392 1043.4 432.392C1044.08 432.392 1044.65 432.627 1045.1 433.096C1045.54 433.565 1045.77 434.163 1045.77 434.888C1045.77 435.613 1045.54 436.211 1045.1 436.68C1044.65 437.149 1044.08 437.384 1043.4 437.384ZM1052.21 437.384C1051.53 437.384 1050.95 437.149 1050.48 436.68C1050.04 436.211 1049.81 435.613 1049.81 434.888C1049.81 434.163 1050.04 433.565 1050.48 433.096C1050.95 432.627 1051.53 432.392 1052.21 432.392C1052.9 432.392 1053.46 432.627 1053.91 433.096C1054.36 433.565 1054.58 434.163 1054.58 434.888C1054.58 435.613 1054.36 436.211 1053.91 436.68C1053.46 437.149 1052.9 437.384 1052.21 437.384ZM1061.03 437.384C1060.34 437.384 1059.77 437.149 1059.3 436.68C1058.85 436.211 1058.63 435.613 1058.63 434.888C1058.63 434.163 1058.85 433.565 1059.3 433.096C1059.77 432.627 1060.34 432.392 1061.03 432.392C1061.71 432.392 1062.27 432.627 1062.72 433.096C1063.17 433.565 1063.39 434.163 1063.39 434.888C1063.39 435.613 1063.17 436.211 1062.72 436.68C1062.27 437.149 1061.71 437.384 1061.03 437.384Z" fill="white"/>
<defs>
<filter id="filter0_f" x="304.281" y="-157.107" width="1343.17" height="1199.62" filterUnits="userSpaceOnUse" color-interpolation-filters="sRGB">
<feFlood flood-opacity="0" result="BackgroundImageFix"/>
<feBlend mode="normal" in="SourceGraphic" in2="BackgroundImageFix" result="shape"/>
<feGaussianBlur stdDeviation="100" result="effect1_foregroundBlur"/>
</filter>
<filter id="filter1_f" x="583.658" y="-65.17" width="911.707" height="934.081" filterUnits="userSpaceOnUse" color-interpolation-filters="sRGB">
<feFlood flood-opacity="0" result="BackgroundImageFix"/>
<feBlend mode="normal" in="SourceGraphic" in2="BackgroundImageFix" result="shape"/>
<feGaussianBlur stdDeviation="100" result="effect1_foregroundBlur"/>
</filter>
<filter id="filter2_f" x="695.832" y="-72.4682" width="887.249" height="1199.62" filterUnits="userSpaceOnUse" color-interpolation-filters="sRGB">
<feFlood flood-opacity="0" result="BackgroundImageFix"/>
<feBlend mode="normal" in="SourceGraphic" in2="BackgroundImageFix" result="shape"/>
<feGaussianBlur stdDeviation="100" result="effect1_foregroundBlur"/>
</filter>
<filter id="filter3_f" x="759.535" y="-139.602" width="737.979" height="766.358" filterUnits="userSpaceOnUse" color-interpolation-filters="sRGB">
<feFlood flood-opacity="0" result="BackgroundImageFix"/>
<feBlend mode="normal" in="SourceGraphic" in2="BackgroundImageFix" result="shape"/>
<feGaussianBlur stdDeviation="100" result="effect1_foregroundBlur"/>
</filter>
<filter id="filter4_f" x="18.8242" y="159.919" width="1783.65" height="781.253" filterUnits="userSpaceOnUse" color-interpolation-filters="sRGB">
<feFlood flood-opacity="0" result="BackgroundImageFix"/>
<feBlend mode="normal" in="SourceGraphic" in2="BackgroundImageFix" result="shape"/>
<feGaussianBlur stdDeviation="100" result="effect1_foregroundBlur"/>
</filter>
<filter id="filter5_f" x="428.678" y="203.754" width="1150.68" height="654.644" filterUnits="userSpaceOnUse" color-interpolation-filters="sRGB">
<feFlood flood-opacity="0" result="BackgroundImageFix"/>
<feBlend mode="normal" in="SourceGraphic" in2="BackgroundImageFix" result="shape"/>
<feGaussianBlur stdDeviation="100" result="effect1_foregroundBlur"/>
</filter>
<filter id="filter6_f" x="593.234" y="200.274" width="1114.8" height="781.253" filterUnits="userSpaceOnUse" color-interpolation-filters="sRGB">
<feFlood flood-opacity="0" result="BackgroundImageFix"/>
<feBlend mode="normal" in="SourceGraphic" in2="BackgroundImageFix" result="shape"/>
<feGaussianBlur stdDeviation="100" result="effect1_foregroundBlur"/>
</filter>
<filter id="filter7_f" x="686.691" y="168.265" width="895.822" height="574.676" filterUnits="userSpaceOnUse" color-interpolation-filters="sRGB">
<feFlood flood-opacity="0" result="BackgroundImageFix"/>
<feBlend mode="normal" in="SourceGraphic" in2="BackgroundImageFix" result="shape"/>
<feGaussianBlur stdDeviation="100" result="effect1_foregroundBlur"/>
</filter>
<filter id="filter8_f" x="-285.177" y="366.919" width="1783.65" height="781.253" filterUnits="userSpaceOnUse" color-interpolation-filters="sRGB">
<feFlood flood-opacity="0" result="BackgroundImageFix"/>
<feBlend mode="normal" in="SourceGraphic" in2="BackgroundImageFix" result="shape"/>
<feGaussianBlur stdDeviation="100" result="effect1_foregroundBlur"/>
</filter>
<filter id="filter9_f" x="124.678" y="410.754" width="1150.68" height="654.644" filterUnits="userSpaceOnUse" color-interpolation-filters="sRGB">
<feFlood flood-opacity="0" result="BackgroundImageFix"/>
<feBlend mode="normal" in="SourceGraphic" in2="BackgroundImageFix" result="shape"/>
<feGaussianBlur stdDeviation="100" result="effect1_foregroundBlur"/>
</filter>
<filter id="filter10_f" x="289.234" y="407.274" width="1114.8" height="781.253" filterUnits="userSpaceOnUse" color-interpolation-filters="sRGB">
<feFlood flood-opacity="0" result="BackgroundImageFix"/>
<feBlend mode="normal" in="SourceGraphic" in2="BackgroundImageFix" result="shape"/>
<feGaussianBlur stdDeviation="100" result="effect1_foregroundBlur"/>
</filter>
<filter id="filter11_f" x="382.691" y="375.265" width="895.822" height="574.676" filterUnits="userSpaceOnUse" color-interpolation-filters="sRGB">
<feFlood flood-opacity="0" result="BackgroundImageFix"/>
<feBlend mode="normal" in="SourceGraphic" in2="BackgroundImageFix" result="shape"/>
<feGaussianBlur stdDeviation="100" result="effect1_foregroundBlur"/>
</filter>
<linearGradient id="paint0_linear" x1="756.202" y1="1316.41" x2="1759.45" y2="1302.74" gradientUnits="userSpaceOnUse">
<stop stop-color="#1477F8"/>
<stop offset="0.848958" stop-color="#FF6161"/>
</linearGradient>
<linearGradient id="paint1_linear" x1="920.335" y1="985.428" x2="1464.67" y2="979.404" gradientUnits="userSpaceOnUse">
<stop stop-color="#1477F8"/>
<stop offset="0.848958" stop-color="#FF6161"/>
</linearGradient>
<linearGradient id="paint2_linear" x1="1025.98" y1="1401.05" x2="1544.33" y2="1397.4" gradientUnits="userSpaceOnUse">
<stop stop-color="#1477F8"/>
<stop offset="0.848958" stop-color="#FF6161"/>
</linearGradient>
<linearGradient id="paint3_linear" x1="1049.81" y1="643.875" x2="1409.34" y2="640.044" gradientUnits="userSpaceOnUse">
<stop stop-color="#1477F8"/>
<stop offset="0.848958" stop-color="#FF6161"/>
</linearGradient>
<linearGradient id="paint4_linear" x1="588.396" y1="967.117" x2="2057.87" y2="905.518" gradientUnits="userSpaceOnUse">
<stop stop-color="#1477F8"/>
<stop offset="0.848958" stop-color="#FF6161"/>
</linearGradient>
<linearGradient id="paint5_linear" x1="829.184" y1="809.31" x2="1626.91" y2="782.147" gradientUnits="userSpaceOnUse">
<stop stop-color="#1477F8"/>
<stop offset="0.848958" stop-color="#FF6161"/>
</linearGradient>
<linearGradient id="paint6_linear" x1="984.159" y1="1007.47" x2="1744.28" y2="991.012" gradientUnits="userSpaceOnUse">
<stop stop-color="#1477F8"/>
<stop offset="0.848958" stop-color="#FF6161"/>
</linearGradient>
<linearGradient id="paint7_linear" x1="1019.13" y1="646.461" x2="1546.06" y2="629.185" gradientUnits="userSpaceOnUse">
<stop stop-color="#1477F8"/>
<stop offset="0.848958" stop-color="#FF6161"/>
</linearGradient>
<linearGradient id="paint8_linear" x1="284.395" y1="1174.12" x2="1753.87" y2="1112.52" gradientUnits="userSpaceOnUse">
<stop stop-color="#1477F8"/>
<stop offset="0.848958" stop-color="#FF6161"/>
</linearGradient>
<linearGradient id="paint9_linear" x1="525.184" y1="1016.31" x2="1322.91" y2="989.147" gradientUnits="userSpaceOnUse">
<stop stop-color="#1477F8"/>
<stop offset="0.848958" stop-color="#FF6161"/>
</linearGradient>
<linearGradient id="paint10_linear" x1="680.159" y1="1214.47" x2="1440.28" y2="1198.01" gradientUnits="userSpaceOnUse">
<stop stop-color="#1477F8"/>
<stop offset="0.848958" stop-color="#FF6161"/>
</linearGradient>
<linearGradient id="paint11_linear" x1="715.125" y1="853.461" x2="1242.06" y2="836.185" gradientUnits="userSpaceOnUse">
<stop stop-color="#1477F8"/>
<stop offset="0.848958" stop-color="#FF6161"/>
</linearGradient>
<radialGradient id="paint12_radial" cx="0" cy="0" r="1" gradientUnits="userSpaceOnUse" gradientTransform="translate(720 613.25) rotate(90) scale(95.25 632.074)">
<stop stop-color="#201785"/>
<stop offset="1" stop-color="#201785" stop-opacity="0"/>
</radialGradient>
<linearGradient id="paint13_linear" x1="656.5" y1="665.245" x2="656.5" y2="750.064" gradientUnits="userSpaceOnUse">
<stop stop-color="#1E283D"/>
<stop offset="1" stop-color="#1E283D" stop-opacity="0"/>
</linearGradient>
<linearGradient id="paint14_linear" x1="704.5" y1="660.245" x2="704.5" y2="745.064" gradientUnits="userSpaceOnUse">
<stop stop-color="#1E283D"/>
<stop offset="1" stop-color="#1E283D" stop-opacity="0"/>
</linearGradient>
<linearGradient id="paint15_linear" x1="597.5" y1="699.245" x2="597.5" y2="784.064" gradientUnits="userSpaceOnUse">
<stop stop-color="#1E283D"/>
<stop offset="1" stop-color="#1E283D" stop-opacity="0"/>
</linearGradient>
<linearGradient id="paint16_linear" x1="843" y1="706" x2="843" y2="791" gradientUnits="userSpaceOnUse">
<stop stop-color="#1E283D"/>
<stop offset="1" stop-color="#1E283D" stop-opacity="0"/>
</linearGradient>
<linearGradient id="paint17_linear" x1="582.5" y1="755" x2="582.5" y2="840" gradientUnits="userSpaceOnUse">
<stop stop-color="#1E283D"/>
<stop offset="1" stop-color="#1E283D" stop-opacity="0"/>
</linearGradient>
<linearGradient id="paint18_linear" x1="801" y1="654" x2="801" y2="739" gradientUnits="userSpaceOnUse">
<stop stop-color="#1E283D"/>
<stop offset="1" stop-color="#1E283D" stop-opacity="0"/>
</linearGradient>
<linearGradient id="paint19_linear" x1="849" y1="720" x2="849" y2="805" gradientUnits="userSpaceOnUse">
<stop stop-color="#1E283D"/>
<stop offset="1" stop-color="#1E283D" stop-opacity="0"/>
</linearGradient>
<linearGradient id="paint20_linear" x1="836" y1="744" x2="836" y2="829" gradientUnits="userSpaceOnUse">
<stop stop-color="#1E283D"/>
<stop offset="1" stop-color="#1E283D" stop-opacity="0"/>
</linearGradient>
</defs>
</svg>

