<svg width="102" height="33" viewBox="0 0 102 33" fill="none" xmlns="http://www.w3.org/2000/svg">
<path d="M60.2942 24.328L67.2902 23.184L68.2362 14.208L63.1102 12.184L56.0482 12.91L55.8942 11.062L63.4402 10.314L70.4362 12.932L69.1382 24.79L60.6242 26.198L60.2942 24.328ZM57.1922 13.746H59.1942L59.6342 26.484H57.6322L57.1922 13.746ZM73.0552 18.102L74.9252 17.816L75.9372 24.746L79.8972 24.636L80.2932 16.606L72.8352 16.738L72.8572 15L82.2732 14.846L81.6792 26.308L74.3312 26.55L73.0552 18.102ZM85.2016 10.226H87.7756V12.778H85.2016V10.226ZM81.9896 30.554L85.5096 27.738V14.78H87.4456V28.442L83.0896 31.962L81.9896 30.554ZM90.522 18.102L92.392 17.816L93.404 24.746L97.364 24.636L97.76 16.606L90.302 16.738L90.324 15L99.74 14.846L99.146 26.308L91.798 26.55L90.522 18.102Z" fill="#1E283D"/>
<path d="M60.2942 24.328L60.2135 23.8346C60.0816 23.8561 59.9638 23.9297 59.8864 24.0387C59.809 24.1477 59.7786 24.2832 59.8018 24.4149L60.2942 24.328ZM67.2902 23.184L67.3709 23.6774C67.5933 23.6411 67.7638 23.4605 67.7875 23.2364L67.2902 23.184ZM68.2362 14.208L68.7335 14.2604C68.757 14.0371 68.6287 13.8254 68.4198 13.7429L68.2362 14.208ZM63.1102 12.184L63.2938 11.7189C63.2193 11.6895 63.1388 11.6784 63.0591 11.6866L63.1102 12.184ZM56.0482 12.91L55.5499 12.9515C55.5611 13.0853 55.6256 13.209 55.7289 13.2948C55.8323 13.3805 55.9658 13.4211 56.0993 13.4074L56.0482 12.91ZM55.8942 11.062L55.8449 10.5644C55.5731 10.5914 55.3733 10.8314 55.3959 11.1035L55.8942 11.062ZM63.4402 10.314L63.6154 9.84571C63.5438 9.81891 63.467 9.80889 63.3909 9.81644L63.4402 10.314ZM70.4362 12.932L70.9332 12.9864C70.9581 12.7591 70.8256 12.5439 70.6115 12.4637L70.4362 12.932ZM69.1382 24.79L69.2198 25.2833C69.441 25.2467 69.6108 25.0673 69.6352 24.8444L69.1382 24.79ZM60.6242 26.198L60.1318 26.2849C60.1794 26.5548 60.4354 26.736 60.7058 26.6913L60.6242 26.198ZM57.1922 13.746V13.246C57.0566 13.246 56.9268 13.3011 56.8326 13.3986C56.7384 13.4961 56.6878 13.6277 56.6925 13.7633L57.1922 13.746ZM59.1942 13.746L59.6939 13.7287C59.6846 13.4595 59.4636 13.246 59.1942 13.246V13.746ZM59.6342 26.484V26.984C59.7698 26.984 59.8996 26.9289 59.9938 26.8314C60.088 26.7339 60.1386 26.6023 60.1339 26.4667L59.6342 26.484ZM57.6322 26.484L57.1325 26.5013C57.1418 26.7705 57.3628 26.984 57.6322 26.984V26.484ZM60.3749 24.8214L67.3709 23.6774L67.2095 22.6906L60.2135 23.8346L60.3749 24.8214ZM67.7875 23.2364L68.7335 14.2604L67.739 14.1556L66.793 23.1316L67.7875 23.2364ZM68.4198 13.7429L63.2938 11.7189L62.9266 12.6491L68.0526 14.6731L68.4198 13.7429ZM63.0591 11.6866L55.9971 12.4126L56.0993 13.4074L63.1613 12.6814L63.0591 11.6866ZM56.5465 12.8685L56.3925 11.0205L55.3959 11.1035L55.5499 12.9515L56.5465 12.8685ZM55.9435 11.5596L63.4895 10.8116L63.3909 9.81644L55.8449 10.5644L55.9435 11.5596ZM63.265 10.7823L70.261 13.4003L70.6115 12.4637L63.6154 9.84571L63.265 10.7823ZM69.9392 12.8776L68.6412 24.7356L69.6352 24.8444L70.9332 12.9864L69.9392 12.8776ZM69.0566 24.2967L60.5426 25.7047L60.7058 26.6913L69.2198 25.2833L69.0566 24.2967ZM61.1166 26.1111L60.7866 24.2411L59.8018 24.4149L60.1318 26.2849L61.1166 26.1111ZM57.1922 14.246H59.1942V13.246H57.1922V14.246ZM58.6945 13.7633L59.1345 26.5013L60.1339 26.4667L59.6939 13.7287L58.6945 13.7633ZM59.6342 25.984H57.6322V26.984H59.6342V25.984ZM58.1319 26.4667L57.6919 13.7287L56.6925 13.7633L57.1325 26.5013L58.1319 26.4667ZM73.0552 18.102L72.9797 17.6077C72.707 17.6494 72.5197 17.904 72.5609 18.1767L73.0552 18.102ZM74.9252 17.816L75.42 17.7437C75.4007 17.612 75.3297 17.4933 75.2226 17.4141C75.1156 17.3348 74.9813 17.3016 74.8497 17.3217L74.9252 17.816ZM75.9372 24.746L75.4425 24.8182C75.4791 25.0691 75.6977 25.2528 75.9511 25.2458L75.9372 24.746ZM79.8972 24.636L79.9111 25.1358C80.1722 25.1286 80.3838 24.9215 80.3966 24.6606L79.8972 24.636ZM80.2932 16.606L80.7926 16.6306C80.7995 16.4924 80.7487 16.3575 80.6523 16.2581C80.556 16.1587 80.4228 16.1036 80.2844 16.1061L80.2932 16.606ZM72.8352 16.738L72.3353 16.7317C72.3336 16.8669 72.3867 16.9971 72.4826 17.0924C72.5785 17.1878 72.7089 17.2403 72.8441 17.2379L72.8352 16.738ZM72.8572 15L72.8491 14.5001C72.5786 14.5045 72.3607 14.7232 72.3573 14.9937L72.8572 15ZM82.2732 14.846L82.7726 14.8719C82.7797 14.7335 82.7292 14.5984 82.633 14.4988C82.5368 14.3991 82.4036 14.3438 82.2651 14.3461L82.2732 14.846ZM81.6792 26.308L81.6957 26.8077C81.9553 26.7992 82.1651 26.5933 82.1786 26.3339L81.6792 26.308ZM74.3312 26.55L73.8368 26.6247C73.8747 26.8754 74.0943 27.0581 74.3477 27.0497L74.3312 26.55ZM73.1308 18.5963L75.0008 18.3103L74.8497 17.3217L72.9797 17.6077L73.1308 18.5963ZM74.4305 17.8882L75.4425 24.8182L76.432 24.6737L75.42 17.7437L74.4305 17.8882ZM75.9511 25.2458L79.9111 25.1358L79.8834 24.1362L75.9234 24.2462L75.9511 25.2458ZM80.3966 24.6606L80.7926 16.6306L79.7938 16.5814L79.3979 24.6114L80.3966 24.6606ZM80.2844 16.1061L72.8264 16.2381L72.8441 17.2379L80.3021 17.1059L80.2844 16.1061ZM73.3352 16.7443L73.3572 15.0063L72.3573 14.9937L72.3353 16.7317L73.3352 16.7443ZM72.8654 15.4999L82.2814 15.3459L82.2651 14.3461L72.8491 14.5001L72.8654 15.4999ZM81.7739 14.8201L81.1799 26.2821L82.1786 26.3339L82.7726 14.8719L81.7739 14.8201ZM81.6628 25.8083L74.3148 26.0503L74.3477 27.0497L81.6957 26.8077L81.6628 25.8083ZM74.8256 26.4753L73.5496 18.0273L72.5609 18.1767L73.8368 26.6247L74.8256 26.4753ZM85.2016 10.226V9.726C84.9255 9.726 84.7016 9.94986 84.7016 10.226H85.2016ZM87.7757 10.226H88.2757C88.2757 9.94986 88.0518 9.726 87.7757 9.726V10.226ZM87.7757 12.778V13.278C88.0518 13.278 88.2757 13.0541 88.2757 12.778H87.7757ZM85.2016 12.778H84.7016C84.7016 13.0541 84.9255 13.278 85.2016 13.278V12.778ZM81.9896 30.554L81.6773 30.1636C81.4634 30.3347 81.427 30.646 81.5956 30.8618L81.9896 30.554ZM85.5096 27.738L85.822 28.1284C85.9406 28.0335 86.0096 27.8899 86.0096 27.738H85.5096ZM85.5096 14.78V14.28C85.2335 14.28 85.0096 14.5039 85.0096 14.78H85.5096ZM87.4456 14.78H87.9456C87.9456 14.5039 87.7218 14.28 87.4456 14.28V14.78ZM87.4456 28.442L87.7599 28.8309C87.8774 28.736 87.9456 28.593 87.9456 28.442H87.4456ZM83.0896 31.962L82.6956 32.2698C82.7782 32.3754 82.8996 32.4435 83.0328 32.4588C83.1659 32.474 83.2997 32.4351 83.4039 32.3509L83.0896 31.962ZM85.2016 10.726H87.7757V9.726H85.2016V10.726ZM87.2756 10.226V12.778H88.2757V10.226H87.2756ZM87.7757 12.278H85.2016V13.278H87.7757V12.278ZM85.7016 12.778V10.226H84.7016V12.778H85.7016ZM82.302 30.9444L85.822 28.1284L85.1973 27.3476L81.6773 30.1636L82.302 30.9444ZM86.0096 27.738V14.78H85.0096V27.738H86.0096ZM85.5096 15.28H87.4456V14.28H85.5096V15.28ZM86.9456 14.78V28.442H87.9456V14.78H86.9456ZM87.1314 28.0531L82.7754 31.5731L83.4039 32.3509L87.7599 28.8309L87.1314 28.0531ZM83.4837 31.6542L82.3837 30.2462L81.5956 30.8618L82.6956 32.2698L83.4837 31.6542ZM90.522 18.102L90.4464 17.6077C90.1738 17.6494 89.9865 17.904 90.0276 18.1767L90.522 18.102ZM92.392 17.816L92.8868 17.7437C92.8675 17.612 92.7965 17.4933 92.6894 17.4141C92.5824 17.3348 92.4481 17.3016 92.3164 17.3217L92.392 17.816ZM93.404 24.746L92.9093 24.8182C92.9459 25.0691 93.1645 25.2528 93.4179 25.2458L93.404 24.746ZM97.364 24.636L97.3779 25.1358C97.639 25.1286 97.8506 24.9215 97.8634 24.6606L97.364 24.636ZM97.76 16.606L98.2594 16.6306C98.2663 16.4924 98.2155 16.3575 98.1191 16.2581C98.0228 16.1587 97.8896 16.1036 97.7512 16.1061L97.76 16.606ZM90.302 16.738L89.8021 16.7317C89.8004 16.8669 89.8535 16.9971 89.9494 17.0924C90.0452 17.1878 90.1757 17.2403 90.3109 17.2379L90.302 16.738ZM90.324 15L90.3159 14.5001C90.0454 14.5045 89.8275 14.7232 89.8241 14.9937L90.324 15ZM99.74 14.846L100.239 14.8719C100.247 14.7335 100.196 14.5984 100.1 14.4988C100.004 14.3991 99.8704 14.3438 99.7319 14.3461L99.74 14.846ZM99.146 26.308L99.1625 26.8077C99.4221 26.7992 99.6319 26.5933 99.6454 26.3339L99.146 26.308ZM91.798 26.55L91.3036 26.6247C91.3415 26.8754 91.5611 27.0581 91.8145 27.0497L91.798 26.55ZM90.5976 18.5963L92.4676 18.3103L92.3164 17.3217L90.4464 17.6077L90.5976 18.5963ZM91.8973 17.8882L92.9093 24.8182L93.8988 24.6737L92.8868 17.7437L91.8973 17.8882ZM93.4179 25.2458L97.3779 25.1358L97.3502 24.1362L93.3902 24.2462L93.4179 25.2458ZM97.8634 24.6606L98.2594 16.6306L97.2606 16.5814L96.8646 24.6114L97.8634 24.6606ZM97.7512 16.1061L90.2932 16.2381L90.3109 17.2379L97.7689 17.1059L97.7512 16.1061ZM90.802 16.7443L90.824 15.0063L89.8241 14.9937L89.8021 16.7317L90.802 16.7443ZM90.3322 15.4999L99.7482 15.3459L99.7319 14.3461L90.3159 14.5001L90.3322 15.4999ZM99.2407 14.8201L98.6467 26.2821L99.6454 26.3339L100.239 14.8719L99.2407 14.8201ZM99.1296 25.8083L91.7816 26.0503L91.8145 27.0497L99.1625 26.8077L99.1296 25.8083ZM92.2924 26.4753L91.0164 18.0273L90.0276 18.1767L91.3036 26.6247L92.2924 26.4753Z" fill="#1E283D"/>
<path d="M9.99096 7.72964C11.191 8.52964 11.1576 10.063 10.991 10.7296C10.3243 10.7296 8.49096 10.4296 6.49096 9.22964C3.99096 7.72964 3.99096 5.22964 4.99096 6.22964C5.99096 7.22964 8.49096 6.72964 9.99096 7.72964Z" fill="#00BA7F"/>
<path fill-rule="evenodd" clip-rule="evenodd" d="M22.866 31C30.3218 31 36.366 24.9558 36.366 17.5C36.366 10.0442 30.3218 4 22.866 4C17.8855 4 13.535 6.697 11.1951 10.7102C10.8945 10.0199 10.2672 9.18045 9.18392 9.02898C8.30905 8.90664 7.37424 9.21301 6.49122 9.5024C5.57221 9.80359 4.7093 10.0864 4.02848 9.84836C2.6935 9.38165 3.77883 11.6338 6.68215 11.8997C8.44202 12.0609 9.89138 11.7982 10.7517 11.5355C9.86445 13.3341 9.36598 15.3588 9.36598 17.5C9.36598 24.9558 15.4101 31 22.866 31Z" fill="#00D894"/>
<path d="M10 18.7751C10 15.24 13.3326 12.6531 16.7572 13.5298L19.8817 14.3297C21.5995 14.7695 23.4005 14.7695 25.1183 14.3297L28.2428 13.5298C31.6674 12.6531 35 15.24 35 18.7751C35 22.2936 32.4636 25.2996 28.9953 25.8915L24.6029 26.6411C23.211 26.8786 21.789 26.8786 20.3971 26.6411L16.0047 25.8915C12.5364 25.2996 10 22.2936 10 18.7751Z" fill="white"/>
<rect width="2" height="11.9986" rx="1" transform="matrix(-0.00237127 -0.999997 -0.999997 0.00237127 47.7324 26)" fill="#1E283D"/>
<rect width="1.38663" height="5.05457" rx="0.693315" transform="matrix(0.862928 -0.505328 0.698438 0.715671 15.3857 19.3826)" fill="#1E283D"/>
<rect width="1.37876" height="5.16064" rx="0.689382" transform="matrix(-0.85121 -0.524826 0.716642 -0.697442 16.5645 20.3228)" fill="#1E283D"/>
<rect width="1.38663" height="5.05457" rx="0.693315" transform="matrix(-0.862928 0.505328 -0.698437 -0.715671 29.2432 19.6174)" fill="#1E283D"/>
<rect width="1.37876" height="5.16064" rx="0.689382" transform="matrix(0.85121 0.524826 -0.716642 0.697441 28.0645 18.6772)" fill="#1E283D"/>
<rect width="2" height="12" rx="1" transform="matrix(-0.866025 0.5 0.5 0.866025 1.73242 13)" fill="#1E283D"/>
<path d="M15.3837 14.9892C15.2541 14.5947 14.8261 14.3755 14.4529 14.5577C13.6418 14.9538 12.9369 15.5454 12.4045 16.2839C11.7249 17.2267 11.3614 18.3606 11.3663 19.5228C11.3711 20.685 11.7439 21.8158 12.4313 22.7529C12.9697 23.487 13.6795 24.0727 14.4939 24.4621C14.8685 24.6412 15.2947 24.4184 15.4211 24.0229C15.5475 23.6274 15.3243 23.2102 14.9594 23.0121C14.4442 22.7324 13.9941 22.3412 13.6438 21.8636C13.1443 21.1826 12.8734 20.361 12.8699 19.5165C12.8664 18.6721 13.1305 17.8482 13.6243 17.1632C13.9707 16.6827 14.4176 16.2878 14.9304 16.0038C15.2937 15.8027 15.5134 15.3837 15.3837 14.9892Z" fill="#1E283D"/>
<path d="M29.1026 24.1141C29.2059 24.4999 29.6051 24.7332 29.9739 24.5801C30.8168 24.2304 31.5631 23.6749 32.1418 22.9596C32.8729 22.0562 33.2989 20.9443 33.3589 19.7837C33.4188 18.623 33.1096 17.4732 32.4755 16.4992C31.9735 15.7282 31.2884 15.0987 30.4861 14.664C30.1349 14.4738 29.7138 14.6647 29.5713 15.0378C29.4287 15.4109 29.6203 15.8237 29.9621 16.0302C30.4825 16.3445 30.9283 16.7736 31.2634 17.2883C31.7308 18.0062 31.9587 18.8536 31.9145 19.7091C31.8703 20.5645 31.5563 21.384 31.0175 22.0499C30.6312 22.5273 30.1436 22.9082 29.5936 23.1673C29.2322 23.3374 28.9992 23.7283 29.1026 24.1141Z" fill="#1E283D"/>
</svg>
